<svg id="angry" xmlns="http://www.w3.org/2000/svg" viewBox="0 0 128 128"><title>angry</title><g id="fi"><path d="M64,72A31.75,31.75,0,0,0,33.5,94.41a5.3,5.3,0,0,0,3.42,6.67,5.36,5.36,0,0,0,6.75-3.5,21.32,21.32,0,0,1,40.67,0A5.32,5.32,0,1,0,94.5,94.41,31.75,31.75,0,0,0,64,72Z" fill="#d8d8d8"/><path d="M42.67,53.33a10.63,10.63,0,0,0,9.89-6.65,5.48,5.48,0,0,0,2.06-10.19L37.67,26.71a5.5,5.5,0,0,0-5.5,9.53l1.42.82a10.67,10.67,0,0,0,9.07,16.28Z" fill="#d8d8d8"/><path d="M64,0a64,64,0,1,0,64,64A64,64,0,0,0,64,0Zm0,117.33A53.33,53.33,0,1,1,117.33,64,53.38,53.38,0,0,1,64,117.33Z" fill="#d8d8d8"/><path d="M90.11,26.71,73.17,36.49a5.49,5.49,0,0,0,2.29,10.23A10.67,10.67,0,1,0,94.35,37l1.26-.73a5.5,5.5,0,0,0-5.5-9.53Z" fill="#d8d8d8"/></g></svg>