<svg xmlns="http://www.w3.org/2000/svg" viewBox="0 0 128 128"><title>cool</title><g id="cool"><g id="fi-2" data-name="fi"><path d="M64,128a64,64,0,1,1,64-64A64,64,0,0,1,64,128ZM64,10.67A53.33,53.33,0,1,0,117.33,64,53.38,53.38,0,0,0,64,10.67ZM42.67,53.33A10.67,10.67,0,1,1,53.33,42.67,10.63,10.63,0,0,1,42.67,53.33Zm21.33,48A31.75,31.75,0,0,1,33.5,78.92a5.32,5.32,0,1,1,10.17-3.17,21.32,21.32,0,0,0,40.67,0,5.36,5.36,0,0,1,6.75-3.5,5.3,5.3,0,0,1,3.42,6.67A31.75,31.75,0,0,1,64,101.33Zm21.33-48A10.67,10.67,0,1,1,96,42.67,10.63,10.63,0,0,1,85.33,53.33Z" fill="#d8d8d8"/><path d="M127,33a53.74,53.74,0,0,0-25-6c-9.27,0-18.24,1.09-26,5-.19.59-.34,1.17-.47,1.74A18.6,18.6,0,0,0,64,30a18.6,18.6,0,0,0-11.53,3.74c-.13-.57-.28-1.15-.47-1.74-7.76-3.91-16.73-5-26-5A53.74,53.74,0,0,0,1,33a18.59,18.59,0,0,0-1,7C0,55,11,67,26,67A26.92,26.92,0,0,0,53,40c0-.3,0-.59,0-.88C55,35.63,59.61,34,64,34s9,1.63,11,5.12c0,.29,0,.58,0,.88a26.92,26.92,0,0,0,27,27c15,0,26-12,26-27A18.59,18.59,0,0,0,127,33Z" fill="#d8d8d8"/></g></g></svg>