<svg xmlns="http://www.w3.org/2000/svg" viewBox="0 0 128 128"><title>laugh</title><g id="laugh"><g id="fi-2" data-name="fi"><path id="favicon" d="M64,128a64,64,0,1,1,64-64A64,64,0,0,1,64,128ZM64,10.67A53.33,53.33,0,1,0,117.33,64,53.38,53.38,0,0,0,64,10.67ZM42.67,53.33A10.67,10.67,0,1,1,53.33,42.67,10.63,10.63,0,0,1,42.67,53.33ZM91.08,72.25a5.3,5.3,0,0,1,3.42,6.67,32,32,0,0,1-61,0A5.28,5.28,0,0,1,37,72.25M85.33,53.33A10.67,10.67,0,1,1,96,42.67,10.63,10.63,0,0,1,85.33,53.33Z" fill="#d8d8d8"/></g></g></svg>