<svg xmlns="http://www.w3.org/2000/svg" viewBox="0 0 128 128"><title>scream</title><g id="scream"><g id="fi-4" data-name="fi"><path d="M64,128a64,64,0,1,1,64-64A64,64,0,0,1,64,128ZM64,10.67A53.33,53.33,0,1,0,117.33,64,53.38,53.38,0,0,0,64,10.67ZM42.67,53.33A10.67,10.67,0,1,1,53.33,42.67,10.63,10.63,0,0,1,42.67,53.33Zm42.67,0A10.67,10.67,0,1,1,96,42.67,10.63,10.63,0,0,1,85.33,53.33ZM64,101.33c-16.64,0-30-9.43-30-21.17S47.36,59,64,59s30,9.43,30,21.17S80.64,101.33,64,101.33Z" fill="#d8d8d8"/></g></g></svg>