<svg xmlns="http://www.w3.org/2000/svg" viewBox="0 0 128 128"><title>skeptical</title><g id="skeptical"><g id="fi-5" data-name="fi"><path d="M64,128a64,64,0,1,1,64-64A64,64,0,0,1,64,128ZM64,10.67A53.33,53.33,0,1,0,117.33,64,53.38,53.38,0,0,0,64,10.67ZM42.67,53.33A10.67,10.67,0,1,1,53.33,42.67,10.63,10.63,0,0,1,42.67,53.33Zm42.67,0A10.67,10.67,0,1,1,96,42.67,10.63,10.63,0,0,1,85.33,53.33Z" fill="#d8d8d8"/><rect x="31" y="79.76" width="66" height="10.48" rx="5" ry="5" transform="translate(14.5 -9.18) rotate(9.25)" fill="#d8d8d8"/></g></g></svg>