<svg xmlns="http://www.w3.org/2000/svg" viewBox="0 0 128 128"><title>stunned</title><g id="stunned"><g id="fi-5" data-name="fi"><path d="M64,128a64,64,0,1,1,64-64A64,64,0,0,1,64,128ZM64,10.67A53.33,53.33,0,1,0,117.33,64,53.38,53.38,0,0,0,64,10.67ZM42.67,59C36.75,59,32,53,32,45.5S36.75,32,42.67,32s10.67,6,10.67,13.5S48.58,59,42.67,59Zm42.67,0c-5.92,0-10.67-6-10.67-13.5S79.42,32,85.33,32,96,38,96,45.5,91.25,59,85.33,59Z" fill="#d8d8d8"/><path d="M64,101.28c-11.09,0-20-6.28-20-14.11s8.91-14.11,20-14.11,20,6.28,20,14.11S75.09,101.28,64,101.28Z" fill="#d8d8d8"/></g></g></svg>