<svg xmlns="http://www.w3.org/2000/svg" viewBox="0 0 128 128"><title>twinkle</title><g id="twinkle"><g id="fi-5" data-name="fi"><path d="M64,128a64,64,0,1,1,64-64A64,64,0,0,1,64,128ZM64,10.67A53.33,53.33,0,1,0,117.33,64,53.38,53.38,0,0,0,64,10.67Zm0,90.67A31.75,31.75,0,0,1,33.5,78.92a5.32,5.32,0,1,1,10.17-3.17,21.32,21.32,0,0,0,40.67,0,5.36,5.36,0,0,1,6.75-3.5,5.3,5.3,0,0,1,3.42,6.67A31.75,31.75,0,0,1,64,101.33Zm21.33-48A10.67,10.67,0,1,1,96,42.67,10.63,10.63,0,0,1,85.33,53.33Z" fill="#d8d8d8"/><path d="M53.24,39.79A11,11,0,0,0,42.67,32v4.7a7.35,7.35,0,0,1,7.05,5.17A1.84,1.84,0,0,0,52,43.1C53,42.78,54,42,53.24,39.79Z" fill="#d8d8d8"/><path d="M32.09,39.79c-.76,2.21.23,3,1.21,3.31a1.84,1.84,0,0,0,2.31-1.21,7.35,7.35,0,0,1,7.05-5.17V32A11,11,0,0,0,32.09,39.79Z" fill="#d8d8d8"/></g></g></svg>