<svg xmlns="http://www.w3.org/2000/svg" viewBox="0 0 128 128"><title>addon_theme</title><g id="addon_theme.svg"><path d="M68.86,88.57l.07,5.07C69.36,114,55.22,128,34.79,128,10.57,128,.07,108.71.07,86.79c2.64,1.79,11.86,9.14,14.86,9.14a4.11,4.11,0,0,0,3.93-2.64C24.93,77.43,34.43,74.57,50.5,73.86A29.18,29.18,0,0,0,68.86,88.57Zm59.07-76.93c0,3.79-1.5,7.43-3.21,10.79C119.14,33,100.43,67.93,91.5,76.14a22.31,22.31,0,0,1-15.57,6.5C63.86,82.64,54,72.36,54,60.36a20.59,20.59,0,0,1,6.57-15.14L106.14,3.86A14,14,0,0,1,115.43,0C121.93,0,127.93,4.86,127.93,11.64Z" fill="#d8d8d8"/></g></svg>