<svg xmlns="http://www.w3.org/2000/svg" viewBox="0 0 128 128"><title>addon_sound</title><g id="addon_sound.svg"><path d="M128,54.86A9.12,9.12,0,0,1,118.86,64V91.43a9.21,9.21,0,0,1-9.14,9.14C97,90,76.5,75.5,51.71,73.43c-8.5,2.86-11.43,12.79-5.86,18.5-5,8.21,1.43,14,9,19.93-4.43,8.71-22.86,8.86-29.43,2.79-4.14-12.71-10.29-25.43-5.29-41.5H11.43A11.46,11.46,0,0,1,0,61.72V48A11.46,11.46,0,0,1,11.43,36.58H45.71c27.43,0,50.29-16,64-27.43a9.21,9.21,0,0,1,9.14,9.14V45.72A9.12,9.12,0,0,1,128,54.86Zm-18.64-33.8C90.86,35.23,72.93,43.38,54.93,45.36V64.5c18,2,35.93,10,54.43,24.17Z" fill="#d8d8d8"/></g></svg>