<svg xmlns="http://www.w3.org/2000/svg" viewBox="0 0 128 128"><title>addon_translation</title><g id="addon_translation.svg"><path d="M116.88,31.58l-14.7,14.7,14.61,63.55a3,3,0,0,1-1.1,3L104,121.6a2.81,2.81,0,0,1-1.73.55,1.78,1.78,0,0,1-.64-.09,2.61,2.61,0,0,1-1.92-1.46L74.24,74.22,50.6,97.86l4.84,17.71a3,3,0,0,1-.73,2.83l-8.77,8.77a3,3,0,0,1-2.1.82h-.18a3,3,0,0,1-2.19-1.19l-17.26-23L1.2,86.54A2.77,2.77,0,0,1,0,84.44a3.08,3.08,0,0,1,.82-2.28L9.6,73.3a3,3,0,0,1,2.1-.82,1.78,1.78,0,0,1,.73.09l17.71,4.84L53.79,53.76,7.41,28.29A3.21,3.21,0,0,1,5.86,26.1a3.14,3.14,0,0,1,.82-2.46L18.37,11.95a3.05,3.05,0,0,1,2.74-.73L81.82,25.73,96.43,11.12c8.77-8.77,23.37-14.61,29.22-8.77S125.65,22.81,116.88,31.58Z" fill="#d8d8d8"/></g></svg>