<svg xmlns="http://www.w3.org/2000/svg" viewBox="0 0 128 128"><title>avatar_upload</title><g id="avatar_upload.svg"><path d="M127.5,104.22a10.61,10.61,0,0,1-10.58,10.58H11.08A10.61,10.61,0,0,1,.5,104.22V23.78A10.61,10.61,0,0,1,11.08,13.2H116.92A10.62,10.62,0,0,1,127.5,23.78ZM11.08,21.67A2.18,2.18,0,0,0,9,23.78v80.43a2.18,2.18,0,0,0,2.12,2.12H116.92a2.18,2.18,0,0,0,2.12-2.12V23.78a2.18,2.18,0,0,0-2.12-2.12Zm19,33.87a12.7,12.7,0,1,1,12.7-12.7A12.7,12.7,0,0,1,30.13,55.53Zm80.43,42.33H17.43V85.17L38.6,64,49.18,74.58,83,40.72l27.52,27.52Z" fill="#009d20"/></g></svg>