<svg xmlns="http://www.w3.org/2000/svg" viewBox="0 0 128 128"><title>broken_image</title><g id="broken_image.svg"><path d="M128,104.53a10.7,10.7,0,0,1-10.67,10.67H10.67A10.7,10.7,0,0,1,0,104.53V23.47A10.7,10.7,0,0,1,10.67,12.8H117.33A10.7,10.7,0,0,1,128,23.47ZM10.67,21.33a2.19,2.19,0,0,0-2.13,2.13v81.07a2.19,2.19,0,0,0,2.13,2.13H117.33a2.19,2.19,0,0,0,2.13-2.13V23.47a2.19,2.19,0,0,0-2.13-2.13Zm100.27,76.8H17.07V85.33L38.4,64,49.07,74.67,83.2,40.53l27.73,27.73Z" fill="#c9070a"/><path d="M29,42.22v1.53a.6.6,0,0,1-.14.41.55.55,0,0,1-.44.17H25.78V50H23.44V44.32H13.9a.81.81,0,0,1-.52-.17.75.75,0,0,1-.28-.43l-.27-1.37L23.29,28.48h2.49V42.22Zm-5.59,0V33.36q0-.39,0-.85t.09-.94L15.73,42.22Z" fill="#c9070a"/><path d="M46.39,39.24a17.4,17.4,0,0,1-.61,4.88,10.21,10.21,0,0,1-1.66,3.41,6.66,6.66,0,0,1-2.48,2,7.46,7.46,0,0,1-6.13,0,6.69,6.69,0,0,1-2.47-2,10.1,10.1,0,0,1-1.65-3.41,17.6,17.6,0,0,1-.6-4.88,17.67,17.67,0,0,1,.6-4.89A10.18,10.18,0,0,1,33,30.92a6.67,6.67,0,0,1,2.47-2,7.46,7.46,0,0,1,6.13,0,6.64,6.64,0,0,1,2.48,2,10.29,10.29,0,0,1,1.66,3.43A17.47,17.47,0,0,1,46.39,39.24Zm-2.77,0a17.57,17.57,0,0,0-.41-4.13,8.3,8.3,0,0,0-1.11-2.69A4.19,4.19,0,0,0,40.48,31a4.32,4.32,0,0,0-3.81,0,4.14,4.14,0,0,0-1.6,1.46A8.41,8.41,0,0,0,34,35.11a17.58,17.58,0,0,0-.41,4.13A17.47,17.47,0,0,0,34,43.36,8.4,8.4,0,0,0,35.06,46a4.14,4.14,0,0,0,1.6,1.46,4.32,4.32,0,0,0,3.81,0A4.19,4.19,0,0,0,42.09,46a8.29,8.29,0,0,0,1.11-2.69A17.47,17.47,0,0,0,43.61,39.24Z" fill="#c9070a"/><path d="M63.83,42.22v1.53a.59.59,0,0,1-.14.41.55.55,0,0,1-.44.17H60.58V50H58.24V44.32H48.7a.81.81,0,0,1-.52-.17.75.75,0,0,1-.28-.43l-.27-1.37L58.09,28.48h2.49V42.22Zm-5.59,0V33.36q0-.39,0-.85c0-.31.05-.62.09-.94L50.53,42.22Z" fill="#c9070a"/></g></svg>