<svg xmlns="http://www.w3.org/2000/svg" viewBox="0 0 128 128"><title>browser</title><g id="browser.svg"><path d="M104.63,59.64H48c-8.52,0-19.07,4.84-24.59,11.38L.41,98l-.34.41c0-.55-.07-1.16-.07-1.7V31.3A15.32,15.32,0,0,1,15.26,16h21.8A15.32,15.32,0,0,1,52.32,31.3v2.18H89.38a15.32,15.32,0,0,1,15.26,15.26Zm21.25,17-22.89,27C99,108.28,91,112,85,112H10.9C8.45,112,5,111.21,5,108.14a7.31,7.31,0,0,1,2.11-4.5L30,76.67c4-4.63,12-8.31,18-8.31h74.12c2.45,0,5.93.75,5.93,3.81A7.3,7.3,0,0,1,125.89,76.67Z" fill="#d8d8d8"/></g></svg>