<svg xmlns="http://www.w3.org/2000/svg" viewBox="0 0 128 128"><title>channel_yellow_subscribed</title><g id="channel_yellow_subscribed.svg"><path d="M50.29,86.85a71.48,71.48,0,0,1-12.57-1.14,60,60,0,0,1-19.86,9.14A52,52,0,0,1,11.71,96H11.5a2.42,2.42,0,0,1-2.29-2.07c-.29-1.36.64-2.21,1.43-3.14,2.79-3.14,5.93-5.93,8.36-11.86C7.43,72.21,0,61.85,0,50.28,0,30.06,22.5,13.71,50.29,13.71s50.29,16.36,50.29,36.57S78.07,86.85,50.29,86.85ZM109,97.21c2.43,5.93,5.57,8.71,8.36,11.86.78.93,1.71,1.79,1.43,3.14a2.44,2.44,0,0,1-2.5,2.07,52.1,52.1,0,0,1-6.14-1.14A60,60,0,0,1,90.28,104a71.47,71.47,0,0,1-12.57,1.14c-12.93,0-24.79-3.57-33.71-9.43,2.07.14,4.21.29,6.29.29,15.36,0,29.86-4.43,40.93-12.43,11.93-8.71,18.5-20.5,18.5-33.29a37,37,0,0,0-1.64-10.86C120.14,46.06,128,56.64,128,68.56,128,80.21,120.57,90.49,109,97.21Z" fill="#ffb000"/></g></svg>