<svg xmlns="http://www.w3.org/2000/svg" viewBox="0 0 128 128"><title>channel_chat</title><g id="channel_chat.svg"><path d="M64,101.41a85.21,85.21,0,0,1-15-1.27c-8.08,8.08-18.64,13.61-30.83,16.23-1.91.35-4,.71-6.09.92a2.32,2.32,0,0,1-2.48-1.7c-.28-1.13.57-1.84,1.42-2.62,4.46-4.18,9.78-7.51,11.62-22.47C9.15,82.21.5,69.87.5,56.05.5,31,28.92,10.7,64,10.7S127.5,31,127.5,56.05,99.08,101.41,64,101.41ZM36.79,47a9.07,9.07,0,1,0,9.07,9.07A9,9,0,0,0,36.79,47ZM64,47a9.07,9.07,0,1,0,9.07,9.07A9,9,0,0,0,64,47Zm27.21,0a9.07,9.07,0,1,0,9.07,9.07A9,9,0,0,0,91.21,47Z" fill="#d8d8d8"/></g></svg>