<svg xmlns="http://www.w3.org/2000/svg" viewBox="0 0 128 128"><title>change_nickname</title><g id="change_nickname.svg"><path d="M105.44,57.71,35.15,128H0V92.85L70.29,22.56ZM38.36,109.5,18.5,89.64l-7.69,7.69v9H21.63v10.81h9ZM73,36.92a2,2,0,0,0-1.44.59L25.77,83.31a2,2,0,0,0-.59,1.44A1.77,1.77,0,0,0,27,86.6,2,2,0,0,0,28.47,86L74.27,40.22a2,2,0,0,0,.59-1.44A1.77,1.77,0,0,0,73,36.92Zm51.88,1.35-14,14L75.7,17.15l14-13.94A10.6,10.6,0,0,1,97.33,0,10.94,10.94,0,0,1,105,3.21L124.87,23A11.24,11.24,0,0,1,128,30.67,10.88,10.88,0,0,1,124.87,38.27Z" fill="#d8d8d8"/></g></svg>