<svg xmlns="http://www.w3.org/2000/svg" viewBox="0 0 128 128"><title>channel_green</title><g id="channel_green.svg"><path d="M108.07,39.42a37,37,0,0,1,1.64,10.86c0,12.79-6.57,24.57-18.5,33.29C80.14,91.56,65.64,96,50.29,96c-2.07,0-4.21-.14-6.29-.29,8.93,5.86,20.79,9.43,33.71,9.43A71.48,71.48,0,0,0,90.28,104a60,60,0,0,0,19.86,9.14,52.08,52.08,0,0,0,6.14,1.14h.23a2.5,2.5,0,0,0,2.27-2.09c.29-1.36-.64-2.21-1.43-3.14-2.79-3.14-5.93-5.93-8.36-11.86,11.57-6.71,19-17,19-28.64,0-11.93-7.86-22.5-19.93-29.14M50.29,23.07h0c.8,0,1.6,0,2.39.06l.41,0q1.06.05,2.11.14l.21,0q1.15.1,2.29.25h.07l1.77.27.58.09h0a47.72,47.72,0,0,1,14.54,5l.05,0,.26.15,1,.61.45.27c5.34,3.31,9.35,7.61,11.45,12.49l.06.14q.26.62.48,1.25l.11.33q.18.54.33,1.1l.11.43c.08.34.15.69.22,1,0,.16.06.32.09.48.06.35.1.7.13,1.06,0,.15,0,.3,0,.45,0,.49.06,1,.06,1.47v0c0,15-17.59,27.21-39.31,27.21h0c-.8,0-1.6,0-2.39-.06l-.41,0q-1.06-.05-2.11-.14l-.21,0c-.77-.07-1.53-.15-2.29-.25h-.07q-.89-.12-1.77-.27l-.58-.09h0a47.73,47.73,0,0,1-14.54-5l-.05,0-.26-.15-1-.61-.45-.27c-5.33-3.31-9.35-7.61-11.45-12.49l-.06-.14q-.26-.62-.48-1.25L12,56.34q-.18-.54-.33-1.1l-.11-.43c-.08-.34-.15-.69-.22-1,0-.16-.06-.32-.09-.48-.06-.35-.1-.7-.13-1.06,0-.15,0-.3,0-.45,0-.49-.06-1-.06-1.47v0c0-15,17.59-27.21,39.31-27.21m0-9.36C22.5,13.71,0,30.06,0,50.28,0,61.85,7.43,72.21,19,78.92c-2.43,5.93-5.57,8.71-8.36,11.86-.79.93-1.71,1.79-1.43,3.14A2.42,2.42,0,0,0,11.5,96h.21a52,52,0,0,0,6.14-1.14,60,60,0,0,0,19.86-9.14,71.48,71.48,0,0,0,12.57,1.14c27.79,0,50.29-16.36,50.29-36.57S78.07,13.71,50.29,13.71" fill="#009d20"/></g></svg>