<svg xmlns="http://www.w3.org/2000/svg" viewBox="0 0 128 128"><title>connect_tab</title><g id="connect_tab.svg"><path d="M96.82,67.72l-45,45a5.26,5.26,0,0,1-3.72,1.57A5.33,5.33,0,0,1,42.83,109V85.17h-37A5.33,5.33,0,0,1,.5,79.88V48.13a5.33,5.33,0,0,1,5.29-5.29h37V19a5.33,5.33,0,0,1,5.29-5.29,5.26,5.26,0,0,1,3.72,1.57l45,45a5.19,5.19,0,0,1,0,7.44ZM127.5,93.1a23.82,23.82,0,0,1-23.81,23.81H77.23a2.72,2.72,0,0,1-2.65-2.65c0-2.32-1.07-7.94,2.65-7.94h26.46A13.27,13.27,0,0,0,116.92,93.1V34.9a13.27,13.27,0,0,0-13.23-13.23H79.88c-2.07,0-5.29.41-5.29-2.65,0-2.32-1.07-7.94,2.65-7.94h26.46A23.82,23.82,0,0,1,127.5,34.9Z" fill="#009d20"/></g></svg>