<svg xmlns="http://www.w3.org/2000/svg" viewBox="0 0 128 128"><title>copy_url</title><g id="copy_link.svg"><path d="M92.87,81.06a4.39,4.39,0,0,0-3.33,1.48c1.53,1.53,3.33,2.82,3.33,5.19a4.45,4.45,0,0,1-4.45,4.45c-2.36,0-3.66-1.81-5.19-3.33A4.49,4.49,0,0,0,83,95.37L92.54,105a4.45,4.45,0,0,0,3.15,1.25,4.62,4.62,0,0,0,3.15-1.2l6.81-6.76a4.42,4.42,0,0,0,0-6.25L96,82.36a4.5,4.5,0,0,0-3.15-1.3M60.4,48.45a4.66,4.66,0,0,0-3.15,1.25l-6.81,6.76a4.42,4.42,0,0,0,0,6.25l9.63,9.63a4.45,4.45,0,0,0,3.15,1.25,4.35,4.35,0,0,0,3.33-1.44C65,70.64,63.23,69.34,63.23,67a4.45,4.45,0,0,1,4.45-4.45c2.36,0,3.66,1.81,5.19,3.33a4.49,4.49,0,0,0,.23-6.53l-9.54-9.59a4.49,4.49,0,0,0-3.15-1.3m-.08-8.89h.15a13.16,13.16,0,0,1,9.37,3.94l9.54,9.59a13.24,13.24,0,0,1,3.85,9.4,13.56,13.56,0,0,1-4.08,9.68l4.08,4.08a13.42,13.42,0,0,1,19.08-.19L112,85.69a13.31,13.31,0,0,1,0,18.85l-6.81,6.76a13.36,13.36,0,0,1-18.85-.09l-9.54-9.59a13.24,13.24,0,0,1-3.85-9.4,13.56,13.56,0,0,1,4.08-9.68l-4.08-4.08a13.42,13.42,0,0,1-19.08.19L44.14,69a13.31,13.31,0,0,1,0-18.85L51,43.4a13.24,13.24,0,0,1,9.33-3.84m56.25-12.13H38.86A11.46,11.46,0,0,0,27.43,38.86v77.71A11.46,11.46,0,0,0,38.86,128h77.71A11.46,11.46,0,0,0,128,116.57V38.86a11.46,11.46,0,0,0-11.43-11.43M89.14,0H11.43A11.46,11.46,0,0,0,0,11.43V89.14a11.46,11.46,0,0,0,11.43,11.43H22.86V91.43H11.43a2.35,2.35,0,0,1-2.29-2.29V11.43a2.35,2.35,0,0,1,2.29-2.29H89.14a2.35,2.35,0,0,1,2.29,2.29V22.86h9.14V11.43A11.46,11.46,0,0,0,89.14,0" fill="#d8d8d8"/></g></svg>