<svg xmlns="http://www.w3.org/2000/svg" viewBox="0 0 128 128"><title>default</title><g id="default.svg"><path d="M103.38,88.62h-33l-3.92,37.15A2.48,2.48,0,0,1,64.08,128H64a2.48,2.48,0,0,1-2.46-2.08L55.69,88.62H24.62a5,5,0,0,1-4.92-4.92c0-12.62,9.54-24.62,19.69-24.62V19.69a9.91,9.91,0,0,1-9.85-9.85A9.91,9.91,0,0,1,39.38,0H88.62a9.92,9.92,0,0,1,9.85,9.85,9.92,9.92,0,0,1-9.85,9.85V59.08c10.15,0,19.69,12,19.69,24.62A5,5,0,0,1,103.38,88.62ZM56.62,22.15a2.46,2.46,0,1,0-4.92,0V56.62a2.46,2.46,0,1,0,4.92,0Z" fill="#00b4df"/></g></svg>