<svg xmlns="http://www.w3.org/2000/svg" viewBox="0 0 128 128"><title>disconnect_all</title><g id="disconnect_all.svg"><path d="M78.37,11.75h26.12A23.52,23.52,0,0,1,128,35.27V92.73a23.52,23.52,0,0,1-23.51,23.51H78.37a2.69,2.69,0,0,1-2.61-2.61c0-2.29-1.06-7.84,2.61-7.84h26.12a13.1,13.1,0,0,0,13.06-13.06V35.27A13.1,13.1,0,0,0,104.49,22.2H81c-2,0-5.22.41-5.22-2.61C75.75,17.31,74.69,11.75,78.37,11.75ZM1.55,60.33,46,15.92a5.2,5.2,0,0,1,3.67-1.55,5.26,5.26,0,0,1,5.22,5.22V43.1H91.43a5.26,5.26,0,0,1,5.22,5.22V79.67a5.26,5.26,0,0,1-5.22,5.22H54.86v23.51a5.26,5.26,0,0,1-5.22,5.22A5.19,5.19,0,0,1,46,112.08L1.55,67.67a5.13,5.13,0,0,1,0-7.35Z" fill="#c9070a"/></g></svg>