<svg xmlns="http://www.w3.org/2000/svg" viewBox="0 0 128 128"><title>download</title><g id="download.svg"><path d="M102.4,110.93H29.87A29.84,29.84,0,0,1,17.2,54.07c-.07-1-.13-1.93-.13-2.87A34.14,34.14,0,0,1,82.8,38.27a16.87,16.87,0,0,1,11.07-4.13A17.1,17.1,0,0,1,110.93,51.2a16.71,16.71,0,0,1-2.73,9.2,25.6,25.6,0,0,1-5.8,50.53ZM83.2,68.27H68.27V44.8a2.19,2.19,0,0,0-2.13-2.13H53.33A2.19,2.19,0,0,0,51.2,44.8V68.27H36.27a2.15,2.15,0,0,0-2.13,2.13,2.23,2.23,0,0,0,.6,1.53L58.2,95.4a2.11,2.11,0,0,0,1.53.6,2.23,2.23,0,0,0,1.53-.6L84.67,72a2.46,2.46,0,0,0,.67-1.6A2.11,2.11,0,0,0,83.2,68.27Z" fill="#d8d8d8"/></g></svg>