<svg xmlns="http://www.w3.org/2000/svg" viewBox="0 0 128 128"><title>edit</title><g id="edit.svg"><path d="M25.4,125.12a10,10,0,0,1-7,2.88,10.36,10.36,0,0,1-7.09-2.88L3,116.7a9.77,9.77,0,0,1-3-7,10.09,10.09,0,0,1,3-7.09L56.09,49.55A40.19,40.19,0,0,0,78.53,72Zm-2-25.4a5,5,0,1,0,5,5A5,5,0,0,0,23.37,99.72ZM126.13,46.35A34.89,34.89,0,0,1,58.27,34.9,34.94,34.94,0,0,1,93.18,0C98.86,0,106.26,1.71,111,4.91a2.58,2.58,0,0,1,1.25,2.18A2.77,2.77,0,0,1,111,9.27L88.19,22.44V39.89l15,8.34c2.57-1.48,20.65-12.85,22.2-12.85a2.48,2.48,0,0,1,2.49,2.73A28,28,0,0,1,126.13,46.35Z" fill="#d8d8d8"/></g></svg>