<svg xmlns="http://www.w3.org/2000/svg" viewBox="0 0 128 128"><title>emoticon</title><g id="emoticon.svg"><path d="M64,128a64,64,0,1,1,64-64A64,64,0,0,1,64,128ZM64,10.67A53.33,53.33,0,1,0,117.33,64,53.38,53.38,0,0,0,64,10.67ZM42.67,53.33A10.67,10.67,0,1,1,53.33,42.67,10.63,10.63,0,0,1,42.67,53.33Zm21.33,48A31.75,31.75,0,0,1,33.5,78.92a5.32,5.32,0,0,1,10.17-3.17,21.32,21.32,0,0,0,40.67,0,5.36,5.36,0,0,1,6.75-3.5,5.3,5.3,0,0,1,3.42,6.67A31.75,31.75,0,0,1,64,101.33Zm21.33-48A10.67,10.67,0,1,1,96,42.67,10.63,10.63,0,0,1,85.33,53.33Z" fill="#d8d8d8"/></g></svg>