<svg xmlns="http://www.w3.org/2000/svg" viewBox="0 0 128 128"><title>fallback</title><g id="fallback"><path d="M40.26,45.1H87.74l9.72-9.73a3.58,3.58,0,0,1,5.07,5.06L92.8,50.17V66.7h12.59A3.63,3.63,0,0,1,109,70.3h0a3.63,3.63,0,0,1-3.61,3.6H92.8c0,7-1.52,12.32-3.77,16.31L100.73,102a3.55,3.55,0,0,1,0,5.06,3.53,3.53,0,0,1-5.06,0L84.53,95.95s-7.37,6.75-16.93,6.75V52.3H60.4v50.4c-10.18,0-17.6-7.42-17.6-7.42L32.5,106.91a3.63,3.63,0,0,1-2.7,1.18,3.6,3.6,0,0,1-2.71-6L38.47,89.31A33.57,33.57,0,0,1,35.2,73.9H22.61a3.6,3.6,0,1,1,0-7.2H35.2V50.17l-9.73-9.73a3.58,3.58,0,1,1,5.07-5.06l9.72,9.73M46,37.9a18,18,0,0,1,36,0H46M64,.5A63.5,63.5,0,1,0,127.5,64,63.52,63.52,0,0,0,64,.5" fill="#c36"/></g></svg>