<svg xmlns="http://www.w3.org/2000/svg" viewBox="0 0 128 128"><title>group_200</title><g id="group_200.svg"><path d="M64,33.11a24,24,0,0,0-9.27,1.72,19.78,19.78,0,0,0-7.1,4.94,22,22,0,0,0-4.54,7.85,32,32,0,0,0-1.59,10.43,32,32,0,0,0,1.59,10.45,22.07,22.07,0,0,0,4.54,7.82,19.54,19.54,0,0,0,7.1,4.92A24.25,24.25,0,0,0,64,83a24.26,24.26,0,0,0,9.27-1.7,19.33,19.33,0,0,0,7.08-4.92,22.28,22.28,0,0,0,4.51-7.82,32,32,0,0,0,1.59-10.45,32,32,0,0,0-1.59-10.43,22.23,22.23,0,0,0-4.51-7.85,19.57,19.57,0,0,0-7.08-4.94A24,24,0,0,0,64,33.11M64,91.3A34.36,34.36,0,0,1,50.8,88.85,29.44,29.44,0,0,1,40.6,82,31.3,31.3,0,0,1,34,71.46a36.85,36.85,0,0,1-2.36-13.4A36.91,36.91,0,0,1,34,44.68a31.27,31.27,0,0,1,6.6-10.54,29.71,29.71,0,0,1,10.2-6.89A34.1,34.1,0,0,1,64,24.77a34.06,34.06,0,0,1,13.2,2.47,30,30,0,0,1,10.2,6.89A30.84,30.84,0,0,1,94,44.68a37.24,37.24,0,0,1,2.34,13.38A37.18,37.18,0,0,1,94,71.46,30.87,30.87,0,0,1,87.38,82a29.73,29.73,0,0,1-10.2,6.87A34.32,34.32,0,0,1,64,91.3M64,0A106.28,106.28,0,0,0,13.87,12.56V75.8C21.07,102.34,47.29,128,64,128s41.57-20.39,50.13-52.21V12.56A106.28,106.28,0,0,0,64,0" fill="#d8d8d8"/></g></svg>