<svg xmlns="http://www.w3.org/2000/svg" viewBox="0 0 128 128"><title>group_500</title><g id="group_400.svg"><path d="M64,33.11a24,24,0,0,0-9.27,1.72,19.78,19.78,0,0,0-7.1,4.94,22,22,0,0,0-4.54,7.85,32,32,0,0,0-1.59,10.43,32,32,0,0,0,1.59,10.45,22.07,22.07,0,0,0,4.54,7.82,19.54,19.54,0,0,0,7.1,4.92A24.25,24.25,0,0,0,64,83a24.26,24.26,0,0,0,9.27-1.7,19.33,19.33,0,0,0,7.08-4.92,22.27,22.27,0,0,0,4.51-7.82,32,32,0,0,0,1.59-10.45,32,32,0,0,0-1.59-10.43,22.23,22.23,0,0,0-4.51-7.85,19.57,19.57,0,0,0-7.08-4.94A24,24,0,0,0,64,33.11M64,91.3a34.36,34.36,0,0,1-13.18-2.45A29.44,29.44,0,0,1,40.64,82,31.31,31.31,0,0,1,34,71.46a36.85,36.85,0,0,1-2.36-13.4A36.91,36.91,0,0,1,34,44.68a31.27,31.27,0,0,1,6.6-10.54,29.71,29.71,0,0,1,10.2-6.89A34.1,34.1,0,0,1,64,24.77a34.06,34.06,0,0,1,13.2,2.47,30,30,0,0,1,10.2,6.89A30.84,30.84,0,0,1,94,44.68a37.25,37.25,0,0,1,2.34,13.38,39,39,0,0,1-.93,8.64,35.11,35.11,0,0,1-2.65,7.64,29.51,29.51,0,0,1-4.24,6.44,29.88,29.88,0,0,1-5.69,5.08l16.65,18h-8a9.46,9.46,0,0,1-3.13-.48,6.36,6.36,0,0,1-2.54-1.75l-11-12A34.68,34.68,0,0,1,64,91.3M64,0A106.28,106.28,0,0,0,13.87,12.56V75.8C21.07,102.34,47.29,128,64,128s41.57-20.39,50.13-52.21V12.56A106.28,106.28,0,0,0,64,0" fill="#d8d8d8"/></g></svg>