<svg xmlns="http://www.w3.org/2000/svg" viewBox="0 0 128 128"><title>group_300</title><g id="group_300.svg"><path d="M63,83.32a16.73,16.73,0,0,0,5.35-.79,11,11,0,0,0,4-2.27,9.86,9.86,0,0,0,2.47-3.56,12,12,0,0,0,.86-4.63,7.77,7.77,0,0,0-1.32-4.67,10.73,10.73,0,0,0-3.49-3A25.64,25.64,0,0,0,66,62.28l-5.67-1.79a56.65,56.65,0,0,1-5.67-2.15,18.39,18.39,0,0,1-4.94-3.2,14.45,14.45,0,0,1-3.49-4.94,18.07,18.07,0,0,1-1.32-7.32,17.4,17.4,0,0,1,1.36-6.76,17.11,17.11,0,0,1,4-5.78,19.55,19.55,0,0,1,6.42-4,23.38,23.38,0,0,1,8.71-1.52,28.26,28.26,0,0,1,10.09,1.75,23.4,23.4,0,0,1,8,5l-2.36,4.58a3.7,3.7,0,0,1-1,1.13,2.1,2.1,0,0,1-1.27.36A3.32,3.32,0,0,1,77,36.86q-1-.75-2.61-1.68a20.17,20.17,0,0,0-3.74-1.68,16.11,16.11,0,0,0-5.22-.75,15.27,15.27,0,0,0-5,.75,10.56,10.56,0,0,0-3.61,2,8.53,8.53,0,0,0-2.2,3,9.51,9.51,0,0,0-.75,3.79,6.88,6.88,0,0,0,1.34,4.35,11.51,11.51,0,0,0,3.51,2.95,27.63,27.63,0,0,0,4.94,2.13l5.67,1.88A57.76,57.76,0,0,1,75,55.93a20,20,0,0,1,4.94,3.2,14.72,14.72,0,0,1,3.51,4.72,15.7,15.7,0,0,1,1.34,6.83,22,22,0,0,1-1.47,8.07A19,19,0,0,1,79,85.32a19.9,19.9,0,0,1-6.92,4.42,25.37,25.37,0,0,1-9.32,1.61A30,30,0,0,1,51.12,89a28,28,0,0,1-4.92-2.68,24.3,24.3,0,0,1-4.1-3.51l2.77-4.63a3.7,3.7,0,0,1,1-.91,2.34,2.34,0,0,1,1.29-.36,3.74,3.74,0,0,1,2.2,1q1.25,1,3.08,2.2a23.78,23.78,0,0,0,4.4,2.2,17.23,17.23,0,0,0,6.24,1M64,0A106.28,106.28,0,0,0,13.87,12.56V75.8C21.07,102.34,47.29,128,64,128s41.57-20.39,50.13-52.21V12.56A106.28,106.28,0,0,0,64,0" fill="#d8d8d8"/></g></svg>