<svg xmlns="http://www.w3.org/2000/svg" viewBox="0 0 128 128"><title>home</title><g id="home.svg"><path d="M38.08,97.41a3.26,3.26,0,0,1-3.24-3.24V69.87c0-.1.05-.2.05-.3l29.1-24,29.1,24a.64.64,0,0,1,.05.3V94.17a3.26,3.26,0,0,1-3.24,3.24H70.48V78h-13V97.41H38.08M27.93,70.69h-.17a1.68,1.68,0,0,1-1.06-.56l-3.14-3.75a1.66,1.66,0,0,1,.2-2.28L60.15,33.79a6.23,6.23,0,0,1,7.69,0L80.19,44.11V34.24a1.6,1.6,0,0,1,1.62-1.62h9.72a1.6,1.6,0,0,1,1.62,1.62V54.89l11.08,9.21a1.66,1.66,0,0,1,.2,2.28l-3.14,3.75a1.68,1.68,0,0,1-1.06.56h-.15A1.59,1.59,0,0,1,99,70.33L64,41.13,29,70.33a1.78,1.78,0,0,1-1,.36M64,0a64,64,0,1,0,64,64A64,64,0,0,0,64,0" fill="#00b4df"/></g></svg>