<svg xmlns="http://www.w3.org/2000/svg" viewBox="0 0 128 128"><title>hotkeys</title><g id="hotkeys.svg"><path d="M128,93.87a8.51,8.51,0,0,1-8.53,8.53H8.53A8.51,8.51,0,0,1,0,93.87V34.13A8.51,8.51,0,0,1,8.53,25.6H119.47A8.51,8.51,0,0,1,128,34.13Zm-8.53-59.73H8.53V93.87H119.47Zm-93.87,16a1.05,1.05,0,0,1-1.07,1.07h-6.4a1.05,1.05,0,0,1-1.07-1.07v-6.4a1.05,1.05,0,0,1,1.07-1.07h6.4a1.05,1.05,0,0,1,1.07,1.07ZM34.13,67.2a1.05,1.05,0,0,1-1.07,1.07H18.13a1.05,1.05,0,0,1-1.07-1.07V60.8a1.05,1.05,0,0,1,1.07-1.07H33.07a1.05,1.05,0,0,1,1.07,1.07ZM25.6,84.27a1.05,1.05,0,0,1-1.07,1.07h-6.4a1.05,1.05,0,0,1-1.07-1.07v-6.4a1.05,1.05,0,0,1,1.07-1.07h6.4a1.05,1.05,0,0,1,1.07,1.07ZM42.67,50.13A1.05,1.05,0,0,1,41.6,51.2H35.2a1.05,1.05,0,0,1-1.07-1.07v-6.4a1.05,1.05,0,0,1,1.07-1.07h6.4a1.05,1.05,0,0,1,1.07,1.07Zm51.2,34.13a1.05,1.05,0,0,1-1.07,1.07H35.2a1.05,1.05,0,0,1-1.07-1.07v-6.4A1.05,1.05,0,0,1,35.2,76.8H92.8a1.05,1.05,0,0,1,1.07,1.07ZM51.2,67.2a1.05,1.05,0,0,1-1.07,1.07h-6.4a1.05,1.05,0,0,1-1.07-1.07V60.8a1.05,1.05,0,0,1,1.07-1.07h6.4A1.05,1.05,0,0,1,51.2,60.8Zm8.53-17.07a1.05,1.05,0,0,1-1.07,1.07h-6.4a1.05,1.05,0,0,1-1.07-1.07v-6.4a1.05,1.05,0,0,1,1.07-1.07h6.4a1.05,1.05,0,0,1,1.07,1.07ZM68.27,67.2a1.05,1.05,0,0,1-1.07,1.07H60.8a1.05,1.05,0,0,1-1.07-1.07V60.8a1.05,1.05,0,0,1,1.07-1.07h6.4a1.05,1.05,0,0,1,1.07,1.07ZM76.8,50.13a1.05,1.05,0,0,1-1.07,1.07h-6.4a1.05,1.05,0,0,1-1.07-1.07v-6.4a1.05,1.05,0,0,1,1.07-1.07h6.4a1.05,1.05,0,0,1,1.07,1.07ZM85.33,67.2a1.05,1.05,0,0,1-1.07,1.07h-6.4A1.05,1.05,0,0,1,76.8,67.2V60.8a1.05,1.05,0,0,1,1.07-1.07h6.4a1.05,1.05,0,0,1,1.07,1.07Zm8.53-17.07A1.05,1.05,0,0,1,92.8,51.2H86.4a1.05,1.05,0,0,1-1.07-1.07v-6.4a1.05,1.05,0,0,1,1.07-1.07h6.4a1.05,1.05,0,0,1,1.07,1.07ZM110.93,67.2a1.05,1.05,0,0,1-1.07,1.07H94.93a1.05,1.05,0,0,1-1.07-1.07V60.8a1.05,1.05,0,0,1,1.07-1.07h7.47v-16a1.05,1.05,0,0,1,1.07-1.07h6.4a1.05,1.05,0,0,1,1.07,1.07Zm0,17.07a1.05,1.05,0,0,1-1.07,1.07h-6.4a1.05,1.05,0,0,1-1.07-1.07v-6.4a1.05,1.05,0,0,1,1.07-1.07h6.4a1.05,1.05,0,0,1,1.07,1.07Z" fill="#d8d8d8"/></g></svg>