<svg xmlns="http://www.w3.org/2000/svg" viewBox="0 0 128 128"><title>iconsview</title><g id="iconviewer.svg"><path d="M83.58,50.39a22.67,22.67,0,1,1-39.17,0A51.08,51.08,0,0,0,25.13,68.25C33.78,81.62,47.75,90.93,64,90.93s30.22-9.31,38.87-22.67A51.08,51.08,0,0,0,83.58,50.39M64,46.39A15.45,15.45,0,0,0,48.61,61.78a2.43,2.43,0,0,0,4.86,0A10.58,10.58,0,0,1,64,51.25a2.43,2.43,0,0,0,0-4.86m0,51C46,97.41,29,87,19.66,71.75a6.53,6.53,0,0,1,0-7C29,49.48,46,39.1,64,39.1s35,10.38,44.34,25.66a6.53,6.53,0,0,1,0,7C99,87.08,82,97.41,64,97.41M64,0a64,64,0,1,0,64,64A64,64,0,0,0,64,0" fill="#d8d8d8"/></g></svg>