<svg xmlns="http://www.w3.org/2000/svg" viewBox="0 0 128 128"><title>invite</title><g id="invite.svg"><path d="M66,94H82v14.88A18,18,0,0,1,71.31,112H16.69C6.69,112,0,106,0,95.81,0,81.69,3.31,60,21.62,60a3.63,3.63,0,0,1,2.44,1.06c6.13,4.69,12.06,7.63,19.94,7.63s13.81-2.94,19.94-7.62A3.63,3.63,0,0,1,66.38,60a17.61,17.61,0,0,1,13.56,6H66a8.06,8.06,0,0,0-8,8V86A8.06,8.06,0,0,0,66,94ZM20,40A24,24,0,1,1,44,64,24,24,0,0,1,20,40ZM126,72a2.06,2.06,0,0,1,2,2V86a2.06,2.06,0,0,1-2,2H104v22a2.06,2.06,0,0,1-2,2H90a2.06,2.06,0,0,1-2-2V88H66a2.06,2.06,0,0,1-2-2V74a2.06,2.06,0,0,1,2-2H88V50a2.06,2.06,0,0,1,2-2h12a2.06,2.06,0,0,1,2,2V72Z" fill="#009d20"/></g></svg>