<svg xmlns="http://www.w3.org/2000/svg" viewBox="0 0 128 128"><title>list_web</title><g id="list_web.svg"><path d="M128,64A64,64,0,1,1,64,0,64,64,0,0,1,128,64ZM84.92,45c.42-.08.83-1.58,1.08-1.92a5.53,5.53,0,0,1,1.83-1.25,19.21,19.21,0,0,1,4.33-1c1.42-.33,3.17-.33,4.25.92-.25-.25,1.75-2,2-2.08.75-.42,2-.25,2.5-1a7.87,7.87,0,0,0,.17-1.83c-1.42.17-1.92-1.17-2-2.33a1.75,1.75,0,0,1-.5.67c.08-1.25-1.5-.33-2.08-.5-1.92-.5-1.67-1.83-2.25-3.25-.33-.75-1.25-1-1.58-1.75-.33-.5-.5-1.58-1.25-1.67-.5-.08-1.42,1.75-1.58,1.67-.75-.42-1.08.17-1.67.5s-.92.17-1.42.42c1.5-.5-.67-1.33-1.42-1.17,1.17-.33.58-1.58-.08-2.17h.42c-.17-.75-2.5-1.42-3.25-1.92S77.67,24,76.83,24.5c-1,.58.25,2.25.25,3.08.08,1-1,1.25-1,2.08,0,1.42,2.67,1.17,2,3.08-.42,1.17-2,1.42-2.67,2.33s.08,2.33.75,2.92S75,39.33,74.75,39.5c-1.42.67-2.5-1.42-2.83-2.67-.25-.92-.33-2-1.33-2.5-.5-.17-2.08-.42-2.42.08-.5-1.25-2.25-1.75-3.42-2.17a9.51,9.51,0,0,0-4.83-.33c.58-.08-.17-2.67-1.58-2.25a9.31,9.31,0,0,0,.42-2.58,4.73,4.73,0,0,1,1-1.92c.17-.33,2-2.25,1.42-2.33,1.42.17,3,.25,4.17-.92.75-.75,1.08-2,1.83-2.83,1.08-1.25,2.42.33,3.58.42,1.67.08,1.58-1.75.67-2.58,1.08.08.17-1.92-.42-2.17-.75-.25-3.58.5-2.08,1.08-.33-.17-2.33,4-3.5,1.92-.33-.42-.5-2.17-1.25-2.25s-1.08.75-1.33,1.25c.42-1.08-2.33-1.83-2.92-1.92,1.25-.83.25-1.75-.67-2.25-.67-.42-2.75-.75-3.33-.08-1.58,1.92,1.67,2.17,2.5,2.67.25.17,1.25.75.67,1.17-.5.25-2,.67-2.17,1-.5.75.58,1.58-.17,2.33-.75-.75-.75-2-1.33-2.83.75.92-3,.42-2.92.42-1.25,0-3.25.83-4.17-.42-.17-.33-.17-2.25.33-1.83-.75-.58-1.25-1.17-1.75-1.5a50.69,50.69,0,0,0-7.83,3.42,1.42,1.42,0,0,0,1-.08,21,21,0,0,0,1.92-1c.83-.33,2.58-1.33,3.5-.58a1.92,1.92,0,0,1,.42-.42,20.32,20.32,0,0,1,1.67,2.08,5,5,0,0,0-2.5-.08c-.58.17-1.58.33-1.83,1,.25.42.58,1.08.42,1.5-1.08-.75-1.92-2-3.42-2.17a12.39,12.39,0,0,0-1.83.08,54.17,54.17,0,0,0-19.58,18.5,2.34,2.34,0,0,0,1,.67c.83.25,0,2.67,1.58,1.42a1.17,1.17,0,0,1,.25,1.58c.08-.08,3.42,2.08,3.67,2.25.58.5,1.5,1.08,1.75,1.75a1.46,1.46,0,0,1-.83,1.5c-.08-.17-1.33-1.42-1.5-1.08s0,2.67.92,2.58c-1.33.08-.75,5.25-1.08,6.25l.17.08c-.25,1,.58,4.92,2.25,4.5-1.08.25,1.92,4.08,2.33,4.33,1.08.75,2.33,1.25,3.08,2.33s.83,2.92,2,3.83c-.33,1,1.75,2.17,1.67,3.58-.17.08-.25.08-.42.17.42,1.17,2,1.17,2.58,2.25.33.67,0,2.25,1.08,1.92.17-1.83-1.08-3.67-2-5.17-.5-.83-1-1.58-1.42-2.42a22.11,22.11,0,0,1-.83-2.5c.33.08,2.17.75,2,1-.67,1.67,2.67,4.58,3.58,5.67.25.25,2.17,2.75,1.17,2.75,1.08,0,2.58,1.67,3.08,2.5.75,1.25.58,2.83,1.08,4.17.5,1.67,2.83,2.42,4.17,3.17a33.19,33.19,0,0,0,3.33,1.83c1.75.67,2.17.08,3.67-.17,2.17-.33,2.42,2.08,4.17,3,1.08.58,3.42,1.42,4.58.92-.5.17,1.75,3.58,1.92,3.83.75,1,2.17,1.5,3,2.5a1.34,1.34,0,0,0,.58-.75c-.33.92,1.25,2.67,2.08,2.5s1.17-2,1.17-2.67c-1.67.83-3.17.17-4.08-1.5-.17-.42-1.5-2.75-.33-2.75,1.58,0,.5-1.25.33-2.42s-1.33-1.92-1.92-2.92c-.5,1-2.17.75-2.67-.08,0,.25-.25.67-.25,1a3.17,3.17,0,0,1-1.25-.08c.17-1,.25-2.25.5-3.33.42-1.5,3.17-4.42-.42-4.25a2.16,2.16,0,0,0-2.17,1.67c-.42,1-.25,1.92-1.42,2.42a7.29,7.29,0,0,1-4-.25c-1.58-.92-2.67-3.83-2.67-5.5-.08-2.25,1.08-4.25,0-6.33.5-.42,1-1.25,1.58-1.67s1.08.25,1.33-.75a6.64,6.64,0,0,0-.67-.5c1.25.58,3.58-.83,4.67,0,.67.5,1.42.67,1.83-.17.08-.25-.58-1.25-.25-1.92.25,1.42,1.17,1.67,2.42.75.5.5,1.83.33,2.75.83s1.08,1.5,2.17.25a4.51,4.51,0,0,1,1,2c.25.92.75,3.25,1.58,3.67,1.75,1.08,1.33-1.83,1.17-2.83l-.17-2.83c-2.67-.58-1.67-2.67-.17-4.08a19.63,19.63,0,0,0,3-1.5c.75-.67,1.67-1.83,1.25-2.92a1.06,1.06,0,0,0,.92-.75c-.25-.08-1.25-.92-1.42-.83.58-.33.5-.83.17-1.33.83-.5.42-1.42,1.25-1.75.92,1.25,2.75-.17,1.83-1.17.83-1.17,2.75-.58,3.25-1.67,1.25.33.33-1.25,1-2.17.58-.75,1.58-.75,2.33-1.17,0,.08,2.08-1.17,1.42-1.25,1.42.17,4.25-1.33,2.08-2.58.33-.75-.75-1.08-1.5-1.25.58-.17,1.33.17,1.83-.17,1.08-.75.33-1.08-.58-1.33-1.17-.33-2.67.42-3.58,1C86.17,43.92,85.75,44.83,84.92,45Zm17.58,55.75c-.5-.5-1.42-.33-2.08-.67a11.11,11.11,0,0,0-2-.67c.17-1.67-1.67-2.25-2.83-3.08s-1.75-1.75-3.33-1.42c-.17.08-1.83.67-1.5,1a7,7,0,0,0-3-1.83c-1.33-.42-2.25-2.08-3.58-.58-.67.67-.33,1.67-.67,2.33-1.08-.92,1-2,.17-3-1-1.17-2.75.75-3.58,1.25-.5.42-1.08.58-1.42,1.08a20,20,0,0,0-.92,1.92c-.25-.67-1.67-.5-1.75-1,.33,2,.33,4.08.75,6.08a4.69,4.69,0,0,1-1,4c-1,.92-2.25,1.92-2.42,3.33-.17,1,.08,1.92,1,2.17.08,1.25-1.33,2.17-1.25,3.5,0,.08.08.92.17,1.33A52.89,52.89,0,0,0,102.5,100.75Z" fill="#d8d8d8"/></g></svg>