<svg xmlns="http://www.w3.org/2000/svg" viewBox="0 0 128 128"><title>list_wisper_on</title><g id="list_wisper_on"><path d="M68.92,22.15a5,5,0,0,1,4.92-4.92,4.9,4.9,0,0,1,3.46,1.46l25.61,25.62h20.15A5,5,0,0,1,128,49.23V78.77a5,5,0,0,1-4.92,4.92H102.92L77.31,109.31a4.9,4.9,0,0,1-3.46,1.46,5,5,0,0,1-4.92-4.92ZM39.38,64c0-7.69,4.69-15.23,11.92-18.08a4.31,4.31,0,0,1,1.92-.38,4.91,4.91,0,0,1,4.92,4.92c0,5.85-8.92,4.23-8.92,13.54s8.92,7.69,8.92,13.54a4.91,4.91,0,0,1-4.92,4.92,4.31,4.31,0,0,1-1.92-.38A19.67,19.67,0,0,1,39.38,64ZM19.69,64A39.45,39.45,0,0,1,43.54,27.77a5.79,5.79,0,0,1,2-.38,4.93,4.93,0,0,1,1.92,9.46,39.9,39.9,0,0,0-5.85,3.38,29.43,29.43,0,0,0,0,47.54,39.9,39.9,0,0,0,5.85,3.38,4.93,4.93,0,0,1-2,9.46,5.72,5.72,0,0,1-1.92-.38A39.45,39.45,0,0,1,19.69,64ZM0,64A59.12,59.12,0,0,1,35.77,9.69a5.78,5.78,0,0,1,2-.38,5,5,0,0,1,4.92,4.92c0,2.23-1.15,3.46-3,4.54-1.08.62-2.31,1-3.46,1.62a53.83,53.83,0,0,0-6.31,3.92,49.28,49.28,0,0,0,0,79.39,53.83,53.83,0,0,0,6.31,3.92c1.15.62,2.38,1,3.46,1.62,1.85,1.08,3,2.31,3,4.54a5,5,0,0,1-4.92,4.92,5.78,5.78,0,0,1-2-.38A59.12,59.12,0,0,1,0,64Z" fill="#c9070a"/></g></svg>