<svg xmlns="http://www.w3.org/2000/svg" viewBox="0 0 128 128"><title>loading_image</title><g id="loading_image.svg"><path d="M128,104.53a10.7,10.7,0,0,1-10.67,10.67H10.67A10.7,10.7,0,0,1,0,104.53V23.47A10.7,10.7,0,0,1,10.67,12.8H117.33A10.7,10.7,0,0,1,128,23.47ZM10.67,21.33a2.19,2.19,0,0,0-2.13,2.13v81.07a2.19,2.19,0,0,0,2.13,2.13H117.33a2.19,2.19,0,0,0,2.13-2.13V23.47a2.19,2.19,0,0,0-2.13-2.13Zm100.27,76.8H17.07V85.33L38.4,64,49.07,74.67,83.2,40.53l27.73,27.73Z" fill="#d8d8d8"/><circle cx="22.27" cy="40.57" r="6.05" fill="#d8d8d8"/><circle cx="38.4" cy="40.57" r="6.05" fill="#d8d8d8"/><circle cx="54.52" cy="40.57" r="6.05" fill="#d8d8d8"/></g></svg>