<svg xmlns="http://www.w3.org/2000/svg" viewBox="0 0 128 128"><title>manage</title><g id="manage.svg"><path d="M128,73.42a3.2,3.2,0,0,1-2.33,3l-15.42,2.33A47.22,47.22,0,0,1,107,86.33c2.83,4.08,5.83,7.75,8.92,11.5a3.29,3.29,0,0,1,.83,2.08,2.79,2.79,0,0,1-.75,1.92c-2,2.67-13.25,14.92-16.08,14.92a4.24,4.24,0,0,1-2.17-.75l-11.5-9a50.25,50.25,0,0,1-7.58,3.17,109,109,0,0,1-2.42,15.5,3.05,3.05,0,0,1-3,2.33H54.75a3,3,0,0,1-3-2.5l-2.33-15.33a49,49,0,0,1-7.5-3.08L30.17,116a3.2,3.2,0,0,1-2.08.75,3,3,0,0,1-2.08-.92c-4.42-4-10.25-9.17-13.75-14a3.24,3.24,0,0,1-.58-1.92A3.15,3.15,0,0,1,12.33,98c2.83-3.83,5.92-7.5,8.75-11.42a44.21,44.21,0,0,1-3.42-8.25L2.42,76.08a3,3,0,0,1-2.42-3V54.58a3.23,3.23,0,0,1,2.25-3l15.5-2.33A44,44,0,0,1,21,41.58c-2.83-4-5.83-7.75-8.92-11.5a3.08,3.08,0,0,1-.83-2A3.23,3.23,0,0,1,12,26.17c2-2.75,13.25-14.92,16.08-14.92a3.71,3.71,0,0,1,2.17.83L41.75,21a50.22,50.22,0,0,1,7.58-3.17,108.8,108.8,0,0,1,2.42-15.5,3.05,3.05,0,0,1,3-2.33h18.5a3,3,0,0,1,3,2.5l2.33,15.33a49,49,0,0,1,7.5,3.08L97.92,12a2.83,2.83,0,0,1,2-.75,3.29,3.29,0,0,1,2.08.83c4.42,4.08,10.25,9.25,13.75,14.17a2.84,2.84,0,0,1,.58,1.83,3.14,3.14,0,0,1-.67,1.92c-2.83,3.83-5.92,7.5-8.75,11.42a45.8,45.8,0,0,1,3.42,8.17l15.25,2.33a3,3,0,0,1,2.42,3ZM64,42.67A21.33,21.33,0,1,0,85.33,64,21.37,21.37,0,0,0,64,42.67Z" fill="#d8d8d8"/></g></svg>