<svg xmlns="http://www.w3.org/2000/svg" viewBox="0 0 128 128"><title>message_preset</title><g id="message_preset.svg"><path d="M99.6,128a28.15,28.15,0,0,1-19.69-8.38l-65.09-65a32.59,32.59,0,0,1-9.47-22.7A31.61,31.61,0,0,1,37.11,0,32.62,32.62,0,0,1,60,9.47l50.68,50.76a2.69,2.69,0,0,1,.84,1.84c0,1.76-4.69,6.45-6.45,6.45a2.73,2.73,0,0,1-1.93-.84L52.36,16.84a22,22,0,0,0-15.16-6.45A21.15,21.15,0,0,0,16.08,31.83,21.51,21.51,0,0,0,22.45,47l65,65.09a17.57,17.57,0,0,0,12.15,5.28A12.06,12.06,0,0,0,112,105a17.42,17.42,0,0,0-5.28-12.15L58.05,44.15a7.47,7.47,0,0,0-5-2,5.46,5.46,0,0,0-5.61,5.61,7.35,7.35,0,0,0,2.09,4.94L83.85,87a2.69,2.69,0,0,1,.84,1.84c0,1.76-4.77,6.53-6.53,6.53a2.69,2.69,0,0,1-1.84-.84L42,60.23a17.64,17.64,0,0,1-5.28-12.48A16.23,16.23,0,0,1,53.11,31.33a17.5,17.5,0,0,1,12.48,5.28l48.67,48.67A27.8,27.8,0,0,1,122.64,105,22.61,22.61,0,0,1,99.6,128Z" fill="#d8d8d8"/></g></svg>