<svg xmlns="http://www.w3.org/2000/svg" viewBox="0 0 128 128"><title>message_outgoing</title><g id="message_outgoing.svg"><path d="M15.11,60.54,58,17.58a8.76,8.76,0,0,1,6-2.44,8.48,8.48,0,0,1,5.93,2.44l42.89,43a8.27,8.27,0,0,1,2.5,5.93,8.54,8.54,0,0,1-2.5,6l-4.88,4.94a8.76,8.76,0,0,1-6,2.44A8.48,8.48,0,0,1,96,77.41L76.65,58v46.38a8.49,8.49,0,0,1-8.43,8.43H59.78a8.49,8.49,0,0,1-8.43-8.43V58L32,77.41A8.48,8.48,0,0,1,26,79.85a8.76,8.76,0,0,1-6-2.44l-4.94-4.94a8.76,8.76,0,0,1-2.44-6A8.49,8.49,0,0,1,15.11,60.54Z" fill="#d8d8d8"/></g></svg>