<svg xmlns="http://www.w3.org/2000/svg" viewBox="0 0 128 128"><title>message_incoming</title><g id="message_incoming.svg"><path d="M112.89,67.46,70,110.42a8.76,8.76,0,0,1-6,2.44,8.48,8.48,0,0,1-5.93-2.44l-42.89-43a8.27,8.27,0,0,1-2.5-5.93,8.54,8.54,0,0,1,2.5-6l4.88-4.94a8.76,8.76,0,0,1,6-2.44A8.48,8.48,0,0,1,32,50.59L51.35,70V23.58a8.49,8.49,0,0,1,8.43-8.43h8.43a8.49,8.49,0,0,1,8.43,8.43V70L96,50.59A8.48,8.48,0,0,1,102,48.15a8.76,8.76,0,0,1,6,2.44l4.94,4.94a8.77,8.77,0,0,1,2.44,6A8.49,8.49,0,0,1,112.89,67.46Z" fill="#d8d8d8"/></g></svg>