<svg xmlns="http://www.w3.org/2000/svg" viewBox="0 0 128 128"><title>message_offline</title><g id="message_offline.svg"><path d="M115.79,44.71c-11.14,7.71-22.36,15.43-33.43,23.21-4.64,3.21-12.5,9.79-18.29,9.79h-.14c-5.79,0-13.64-6.57-18.29-9.79-11.07-7.79-22.29-15.5-33.36-23.21C7.21,41.29,0,33.21,0,26.71c0-7,3.79-13,11.43-13H116.57A11.51,11.51,0,0,1,128,25.14C128,33.14,122.07,40.36,115.79,44.71ZM128,102.86a11.46,11.46,0,0,1-11.43,11.43H11.43A11.46,11.46,0,0,1,0,102.86V46.14a39.94,39.94,0,0,0,7.21,6.21C19.07,60.43,31.07,68.5,42.71,77c6,4.43,13.43,9.86,21.21,9.86h.14c7.79,0,15.21-5.43,21.21-9.86,11.64-8.43,23.64-16.57,35.57-24.64A42,42,0,0,0,128,46.14Z" fill="#ffb000"/></g></svg>