<svg xmlns="http://www.w3.org/2000/svg" viewBox="0 0 128 128"><title>mode_subscribe</title><g id="mode_subscribe.svg"><path d="M126.57,68.93C113.43,90.57,89.36,105.14,64,105.14S14.57,90.5,1.43,68.93a9.22,9.22,0,0,1,0-9.86C14.57,37.5,38.64,22.86,64,22.86s49.43,14.64,62.57,36.21a9.22,9.22,0,0,1,0,9.86ZM91.64,38.79a32,32,0,1,1-55.29,0A72.1,72.1,0,0,0,9.14,64C21.36,82.86,41.07,96,64,96s42.64-13.14,54.86-32A72.1,72.1,0,0,0,91.64,38.79ZM64,33.14A21.8,21.8,0,0,0,42.29,54.86a3.43,3.43,0,0,0,6.86,0A14.94,14.94,0,0,1,64,40a3.43,3.43,0,1,0,0-6.86Z" fill="#009d20"/></g></svg>