<svg xmlns="http://www.w3.org/2000/svg" viewBox="0 0 128 128"><title>mode_unsubscribe</title><g id="mode_unsubscribe.svg"><path d="M23.5,92.14c-8.36-5.57-16.71-14.71-22-23.21A8.53,8.53,0,0,1,0,64c0-3.71,2.57-6.71,4.64-9.5A78.78,78.78,0,0,1,36.93,28.43c-1.07-1.93-7.86-13.79-7.86-15.07a2.46,2.46,0,0,1,1.21-2.07c1.43-.79,7.86-4.57,9.14-4.57a2.37,2.37,0,0,1,2,1.14l8.86,16.36A68.17,68.17,0,0,1,64,22.86c25.86,0,48.86,14.64,62.57,36.21a9.21,9.21,0,0,1,0,9.86,80,80,0,0,1-35.5,30.64c1.07,1.93,7.86,13.79,7.86,15.07a2.31,2.31,0,0,1-1.21,2.07c-1.43.79-7.86,4.57-9.07,4.57a2.39,2.39,0,0,1-2.07-1.14l-8.86-16.36-4.57-8.5L41.43,36.71l.5-.5a64.19,64.19,0,0,0-7.07,3.36c.86,1.64,34.93,64.21,34.93,64.71s-.28.57-.64.64a24.79,24.79,0,0,1-5.14.21c-.79,0-4,.14-4.29-.5L27.14,44.57a64,64,0,0,0-5.86,4.86c1.57,2.79,28.86,53,28.86,53.43s-.36.71-.79.71c-1.21,0-10.71-2.93-11.07-3.57L30.71,85.93l-16-29.5A82.62,82.62,0,0,0,9.14,64c.93,1.36,2.14,2.79,2.93,4.21,1,1.86,12.57,22.93,12.57,23.36a.77.77,0,0,1-.71.71A1,1,0,0,1,23.5,92.14ZM64,44.57A14.88,14.88,0,0,1,78.86,59.43a3.43,3.43,0,0,0,6.86,0A21.7,21.7,0,0,0,64,37.71a3.43,3.43,0,1,0,0,6.86ZM86.71,91.5c13.36-5.43,24.36-15.43,32.14-27.5-7.93-12.21-19.22-22.36-32.79-27.79A32,32,0,0,1,83.21,85Zm-.64-55.29.5.5.14-.21Z" fill="#c9070a"/></g></svg>