<svg xmlns="http://www.w3.org/2000/svg" viewBox="0 0 128 128"><title>muted_hardware_output_v2</title><g id="muted_hardware_output_v2.svg"><path d="M59.46,102.55a4.57,4.57,0,0,1-4.54,4.54,4.51,4.51,0,0,1-3.19-1.35l-23.6-23.6H9.57A4.57,4.57,0,0,1,5,77.61V50.39a4.57,4.57,0,0,1,4.54-4.54H28.14l23.6-23.6a4.51,4.51,0,0,1,3.19-1.35,4.57,4.57,0,0,1,4.54,4.54Zm16.23-21.9a4,4,0,0,1-1.77.35,4.52,4.52,0,0,1-4.54-4.54c0-5.39,8.22-3.9,8.22-12.47s-8.22-7.09-8.22-12.47A4.52,4.52,0,0,1,73.92,47a4,4,0,0,1,1.77.35c6.66,2.62,11,9.57,11,16.65A18.12,18.12,0,0,1,75.69,80.65Zm7.16,16.72a5.27,5.27,0,0,1-1.77.35A4.54,4.54,0,0,1,79.24,89a36.75,36.75,0,0,0,5.39-3.12,27.11,27.11,0,0,0,0-43.79A36.75,36.75,0,0,0,79.24,39,4.54,4.54,0,0,1,81,30.27a5.33,5.33,0,0,1,1.84.35,36.34,36.34,0,0,1,0,66.76ZM90,114a5.32,5.32,0,0,1-1.84.35,4.57,4.57,0,0,1-4.54-4.54c0-2.05,1.06-3.19,2.76-4.18,1-.57,2.13-.92,3.19-1.49a49.6,49.6,0,0,0,5.81-3.61,45.4,45.4,0,0,0,0-73.13,49.6,49.6,0,0,0-5.81-3.61c-1.06-.57-2.2-.92-3.19-1.49-1.7-1-2.76-2.13-2.76-4.18a4.57,4.57,0,0,1,4.54-4.54A5.32,5.32,0,0,1,90,14,54.46,54.46,0,0,1,90,114Z" fill="#d8d8d8"/><rect x="8.39" y="60.9" width="116.12" height="11.09" rx="2.87" ry="2.87" transform="translate(-27.52 66.45) rotate(-45)" fill="#c9070a"/><path d="M64,128a64,64,0,1,1,64-64A64.07,64.07,0,0,1,64,128ZM64,9.28A54.72,54.72,0,1,0,118.72,64,54.79,54.79,0,0,0,64,9.28Z" fill="#c9070a"/></g></svg>