<svg xmlns="http://www.w3.org/2000/svg" viewBox="0 0 128 128"><title>myts_conflict</title><g id="myts_conflict.svg"><path d="M56.08,107.34a4,4,0,0,1-3.9-3.94V89.61a4,4,0,0,1,3.94-3.94H71.88a4,4,0,0,1,3.94,3.94V103.4a4,4,0,0,1-3.9,3.94H56.08m-2-86.68H73.89a3.83,3.83,0,0,1,3.78,3.81v0s0,.05,0,.08L75.94,71.88a4.11,4.11,0,0,1-4.06,3.94H56.12a4.11,4.11,0,0,1-4.06-3.94L50.33,24.6s0-.05,0-.08v0a3.83,3.83,0,0,1,3.78-3.81M104,0H24A24,24,0,0,0,0,24v80a24,24,0,0,0,24,24h80a24,24,0,0,0,24-24V24A24,24,0,0,0,104,0" fill="#c9070a"/></g></svg>