<svg xmlns="http://www.w3.org/2000/svg" viewBox="0 0 128 128"><title>myts_account</title><g id="myts_account.svg"><path d="M64,66.59c6.76,0,11.27-4.79,12.34-4.79,10.1,0,11.93,12,11.93,19.75h0c0,5.58-3.72,8.93-9.2,8.93H48.94c-5.48,0-9.2-3.34-9.2-8.93,0-7.79,1.83-19.75,11.93-19.75,1.07,0,5.58,4.79,12.34,4.79m0-29.06h0A13.24,13.24,0,1,1,50.76,50.76,13.24,13.24,0,0,1,64,37.53M64,19a45,45,0,1,0,45,45A45,45,0,0,0,64,19" fill="#d8d8d8"/><path d="M64,118.72A54.72,54.72,0,1,1,118.72,64,54.79,54.79,0,0,1,64,118.72M64,0a64,64,0,1,0,64,64A64.07,64.07,0,0,0,64,0" fill="#d8d8d8"/></g></svg>