<svg xmlns="http://www.w3.org/2000/svg" viewBox="0 0 128 128"><title>ping_4</title><g id="ping_4"><path d="M16,100.57H2.29A2.26,2.26,0,0,0,0,102.86v13.71a2.26,2.26,0,0,0,2.29,2.29H16a2.26,2.26,0,0,0,2.29-2.29V102.86A2.26,2.26,0,0,0,16,100.57m27.43-9.14H29.71a2.26,2.26,0,0,0-2.29,2.29v22.86a2.26,2.26,0,0,0,2.29,2.29H43.43a2.26,2.26,0,0,0,2.29-2.29V93.71a2.26,2.26,0,0,0-2.29-2.29M70.86,73.14H57.14a2.26,2.26,0,0,0-2.29,2.29v41.14a2.26,2.26,0,0,0,2.29,2.29H70.86a2.26,2.26,0,0,0,2.29-2.29V75.43a2.26,2.26,0,0,0-2.29-2.29M98.29,45.71H84.57A2.26,2.26,0,0,0,82.29,48v68.57a2.26,2.26,0,0,0,2.29,2.29H98.29a2.26,2.26,0,0,0,2.29-2.29V48a2.26,2.26,0,0,0-2.29-2.29" fill="#d8d8d8"/></g></svg>