<svg id="ping_0.svg" xmlns="http://www.w3.org/2000/svg" viewBox="0 0 128 128"><title>ping_0</title><path d="M27.08,86.15H2.46a2.46,2.46,0,1,1,0-4.92H27.08a2.46,2.46,0,1,1,0,4.92ZM60.92,39.23l-21-21.08A7.33,7.33,0,0,0,34.69,16a7.59,7.59,0,0,0-5.23,2.08L18.15,29.31a7.34,7.34,0,0,0,0,10.38L39.23,60.77,37.85,79.23A21.77,21.77,0,0,1,33.54,76L7.69,50.15A22.24,22.24,0,0,1,1.23,34.46,21.69,21.69,0,0,1,7.77,18.85L19.08,7.62a22.19,22.19,0,0,1,31.31.15L76.08,33.54a21.79,21.79,0,0,1,3.23,4.31ZM14.08,117.46a2.61,2.61,0,0,1-3.54,0,2.61,2.61,0,0,1,0-3.54L30.23,94.23a2.5,2.5,0,0,1,3.54,3.54Zm32.69,8.08a2.46,2.46,0,1,1-4.92,0V100.92a2.46,2.46,0,0,1,4.92,0Zm73.46-16.38-11.31,11.23a22.19,22.19,0,0,1-31.31-.15L51.92,94.46a21.79,21.79,0,0,1-3.23-4.31l18.38-1.38,21,21.08a7.63,7.63,0,0,0,10.46.08l11.31-11.23a7.34,7.34,0,0,0,0-10.39L88.77,67.15l1.38-18.38A21.68,21.68,0,0,1,94.46,52l25.85,25.85a22.24,22.24,0,0,1,6.46,15.69A21.69,21.69,0,0,1,120.23,109.15ZM86.15,27.08a2.46,2.46,0,0,1-4.92,0V2.46a2.46,2.46,0,0,1,4.92,0Zm11.62,6.69a2.61,2.61,0,0,1-3.54,0,2.61,2.61,0,0,1,0-3.54l19.69-19.69a2.61,2.61,0,0,1,3.54,0,2.61,2.61,0,0,1,0,3.54Zm27.77,13H100.92a2.46,2.46,0,0,1,0-4.92h24.62a2.46,2.46,0,1,1,0,4.92Z" fill="#c9070a"/></svg>