<svg xmlns="http://www.w3.org/2000/svg" viewBox="0 0 128 128"><title>ping_5</title><g id="ping_5"><path d="M18.29,116.57A2.26,2.26,0,0,1,16,118.86H2.29A2.26,2.26,0,0,1,0,116.57V102.86a2.26,2.26,0,0,1,2.29-2.29H16a2.26,2.26,0,0,1,2.29,2.29Zm27.43,0a2.26,2.26,0,0,1-2.29,2.29H29.71a2.26,2.26,0,0,1-2.29-2.29V93.71a2.26,2.26,0,0,1,2.29-2.29H43.43a2.26,2.26,0,0,1,2.29,2.29Zm27.43,0a2.26,2.26,0,0,1-2.29,2.29H57.14a2.26,2.26,0,0,1-2.29-2.29V75.43a2.26,2.26,0,0,1,2.29-2.29H70.86a2.26,2.26,0,0,1,2.29,2.29Zm27.43,0a2.26,2.26,0,0,1-2.29,2.29H84.57a2.26,2.26,0,0,1-2.29-2.29V48a2.26,2.26,0,0,1,2.29-2.29H98.29A2.26,2.26,0,0,1,100.57,48Zm27.43,0a2.26,2.26,0,0,1-2.29,2.29H112a2.26,2.26,0,0,1-2.28-2.29V11.43A2.26,2.26,0,0,1,112,9.14h13.71A2.26,2.26,0,0,1,128,11.43Z" fill="#d8d8d8"/></g></svg>