<svg xmlns="http://www.w3.org/2000/svg" viewBox="0 0 128 128"><title>player_chat</title><g id="player_chat.svg"><path d="M64,101.71a85.83,85.83,0,0,1-15.07-1.29c-8.14,8.14-18.79,13.71-31.07,16.36-1.93.36-4,.71-6.14.93A2.34,2.34,0,0,1,9.21,116c-.29-1.14.57-1.86,1.43-2.64,4.5-4.21,9.86-7.57,11.71-22.64C8.71,82.35,0,69.92,0,56,0,30.71,28.64,10.28,64,10.28S128,30.71,128,56,99.36,101.71,64,101.71ZM36.57,46.85A9.14,9.14,0,1,0,45.71,56,9.11,9.11,0,0,0,36.57,46.85Zm27.43,0A9.14,9.14,0,1,0,73.14,56,9.11,9.11,0,0,0,64,46.85Zm27.43,0A9.14,9.14,0,1,0,100.57,56,9.11,9.11,0,0,0,91.43,46.85Z" fill="#d8d8d8"/></g></svg>