<svg xmlns="http://www.w3.org/2000/svg" viewBox="0 0 128 128"><title>poke</title><g id="poke.svg"><path d="M109.71,73.14H97.64A20,20,0,0,1,95,81.64a22.32,22.32,0,0,1,.21,3.07,20.83,20.83,0,0,1-4.29,12.71c.14,13.5-9.07,21.43-22.29,21.43-8,0-15.57-2.21-23-4.93-4.36-1.57-11.43-4.22-15.93-4.22H9.14A9.11,9.11,0,0,1,0,100.57V54.86a9.11,9.11,0,0,1,9.14-9.14H29.71c3.43,0,8.29-6.14,10.36-8.5A75.57,75.57,0,0,0,47.21,28C51.36,21.36,54.43,9.14,64,9.14c11.36,0,20.57,6.21,20.57,18.29A26.49,26.49,0,0,1,83,36.57h26.71a18.29,18.29,0,1,1,0,36.57Zm0-27.43H68.57c0-4.5,6.86-9.14,6.86-18.29,0-6.86-5.36-9.14-11.43-9.14-2,0-5.64,8.29-6.43,9.93s-1.71,3.14-2.64,4.64a75.46,75.46,0,0,1-8,10.36c-4.57,5.21-9.64,11.64-17.21,11.64H27.43v45.71h2.29c12.5,0,24.71,9.14,38.57,9.14,8,0,13.5-3.36,13.5-11.93a24.55,24.55,0,0,0-.36-4c3-1.64,4.64-5.71,4.64-9a10,10,0,0,0-1.29-4.93,11.37,11.37,0,0,0,3.79-8.5A12.84,12.84,0,0,0,86.07,64h23.64a9.3,9.3,0,0,0,9.14-9.14A9.45,9.45,0,0,0,109.71,45.71Z" fill="#00b4df"/></g></svg>