<svg id="Sonstioges" xmlns="http://www.w3.org/2000/svg" viewBox="0 0 128 128"><title>question</title><path d="M64,128a64,64,0,1,1,64-64A64,64,0,0,1,64,128ZM65.67,21.33c-13.58,0-23.75,5.83-30.92,17.75a2.62,2.62,0,0,0,.67,3.5l11,8.33a2.57,2.57,0,0,0,1.58.5,2.64,2.64,0,0,0,2.08-1c3.92-5,5.58-6.5,7.17-7.67a13.34,13.34,0,0,1,7.17-2c5.33,0,10.25,3.42,10.25,7.08,0,4.33-2.25,6.5-7.33,8.83-5.92,2.67-14,9.58-14,17.67v3A2.63,2.63,0,0,0,56,80H72a2.63,2.63,0,0,0,2.67-2.67c0-1.92,2.42-6,6.33-8.25C87.33,65.5,96,60.67,96,48,96,32.75,80,21.33,65.67,21.33Zm9,66.67A2.63,2.63,0,0,0,72,85.33H56A2.63,2.63,0,0,0,53.33,88v16A2.63,2.63,0,0,0,56,106.67H72A2.63,2.63,0,0,0,74.67,104Z" fill="#00b4df"/></svg>