<svg xmlns="http://www.w3.org/2000/svg" viewBox="0 0 128 128"><title>refresh</title><g id="refresh.svg"><path d="M64,87.52A23.45,23.45,0,0,0,84,76.31a37.42,37.42,0,0,0,2.43-5.37,1.42,1.42,0,0,1,1.38-1.06h8.82a1.48,1.48,0,0,1,1.47,1.47.78.78,0,0,1,0,.32c-3.9,16.26-17.32,27.6-34.26,27.6a35.2,35.2,0,0,1-24.16-9.74l-5.93,5.93a2.92,2.92,0,0,1-2.07.87,3,3,0,0,1-2.94-2.94V72.82a3,3,0,0,1,2.94-2.94H52.24a3,3,0,0,1,2.94,2.94,2.92,2.92,0,0,1-.87,2.07L48,81.18a23.47,23.47,0,0,0,16,6.34m0-58.79h0a35.66,35.66,0,0,1,24.3,9.74l6-5.92a2.92,2.92,0,0,1,2.07-.87,3,3,0,0,1,2.94,2.94V55.18a3,3,0,0,1-2.94,2.94H75.76a3,3,0,0,1-2.94-2.94,2.92,2.92,0,0,1,.87-2.07L80,46.78A23.52,23.52,0,0,0,44,51.69a37.29,37.29,0,0,0-2.43,5.37,1.42,1.42,0,0,1-1.38,1.06H31a1.48,1.48,0,0,1-1.47-1.47v-.32C33.5,40,47.05,28.72,64,28.72M64,0a64,64,0,1,0,64,64A64,64,0,0,0,64,0" fill="#00b4df"/></g></svg>