<svg xmlns="http://www.w3.org/2000/svg" viewBox="0 0 128 128"><title>register</title><g id="register.svg"><path d="M54.35,35.06a9.2,9.2,0,0,0-9.2,9.2,9.47,9.47,0,0,0,.91,4,9.47,9.47,0,0,0-4-.91,9.2,9.2,0,1,0,9.2,9.2,9.46,9.46,0,0,0-.91-4,9.46,9.46,0,0,0,4,.91,9.2,9.2,0,0,0,0-18.4M23.69,57.2c.06-15.68,15.74-31.34,31.43-31.34,10.39,0,17.63,7.19,17.63,17.63C72.74,49.82,70.2,56,66.47,61l17,17,4.6-4.6c-1-1-5.51-4.89-5.51-6.13s4.41-5.51,5.51-5.51a1.65,1.65,0,0,1,1.1.48C90.95,64,104.31,76.6,104.31,78c0,1.1-4.41,5.51-5.51,5.51S93.68,79,92.67,78l-4.6,4.6L98.61,93.13A4.65,4.65,0,0,1,100,96.39c0,2.68-3.07,5.75-5.75,5.75a4.64,4.64,0,0,1-3.26-1.34L58.8,68.65c-5,3.74-11.16,6.28-17.49,6.28-10.41,0-17.59-7.2-17.63-17.54V57.2M64,0a64,64,0,1,0,64,64A64,64,0,0,0,64,0" fill="#00b4df"/></g></svg>