<svg xmlns="http://www.w3.org/2000/svg" viewBox="0 0 128 128"><title>save</title><g id="save"><path d="M128,120a8,8,0,0,1-8,8H8a8,8,0,0,1-8-8V8A8,8,0,0,1,8,0H85.33A22.09,22.09,0,0,1,99,5.67L122.34,29A22.11,22.11,0,0,1,128,42.67Zm-10.67-2.67V42.67a12.31,12.31,0,0,0-2.5-6.08L91.42,13.17a11.62,11.62,0,0,0-6.09-2.5V45.33a8,8,0,0,1-8,8h-48a8,8,0,0,1-8-8V10.67H10.67V117.33H21.33V82.67a8,8,0,0,1,8-8H98.67a8,8,0,0,1,8,8v34.67Zm-21.33,0v-32H32v32Zm-21.33-104A2.74,2.74,0,0,0,72,10.67H56a2.74,2.74,0,0,0-2.67,2.67V40A2.75,2.75,0,0,0,56,42.67H72A2.75,2.75,0,0,0,74.67,40Z" fill="#d8d8d8"/></g></svg>