<svg xmlns="http://www.w3.org/2000/svg" viewBox="0 0 128 128"><title>securty</title><g id="security.svg"><path d="M64,33.55A12.75,12.75,0,0,0,51.27,46.27v9.55H76.73V46.27A12.75,12.75,0,0,0,64,33.55M64,24h0A22.36,22.36,0,0,1,86.27,46.27v9.55h1.59a4.77,4.77,0,0,1,4.77,4.77V89.23A4.77,4.77,0,0,1,87.86,94H40.14a4.77,4.77,0,0,1-4.77-4.77V60.59a4.77,4.77,0,0,1,4.77-4.77h1.59V46.27A22.36,22.36,0,0,1,64,24M64,0A106.27,106.27,0,0,0,13.87,12.56V75.79C21.07,102.34,47.29,128,64,128s41.57-20.39,50.13-52.21V12.56A106.27,106.27,0,0,0,64,0" fill="#d8d8d8"/></g></svg>