<svg xmlns="http://www.w3.org/2000/svg" viewBox="0 0 128 128"><title>select_all</title><g id="select_all.svg"><path d="M124.48,26,23.93,126.59a5.1,5.1,0,0,1-7,0L1.41,111.11a5.1,5.1,0,0,1,0-7L102,3.52a5.1,5.1,0,0,1,7,0L124.48,19a5.1,5.1,0,0,1,0,7ZM27.91,10l-7.66,2.35L17.91,20l-2.35-7.66L7.9,10l7.66-2.35L17.91,0l2.35,7.66Zm35,15L47.62,29.71,42.93,45,38.24,29.71,22.91,25l15.33-4.69L42.93,5l4.69,15.33ZM78,10l-7.66,2.35L67.95,20,65.6,12.35,57.94,10,65.6,7.66,67.95,0l2.35,7.66Zm35.89,12.51-8.37-8.37L82.57,37.06l8.37,8.37ZM128,60.05l-7.66,2.35L118,70.06l-2.35-7.66L108,60.05l7.66-2.35L118,50l2.35,7.66Z" fill="#d8d8d8"/></g></svg>