<svg xmlns="http://www.w3.org/2000/svg" viewBox="0 0 128 128"><title>settings</title><g id="settings.svg"><path d="M85.33,70.23a2.08,2.08,0,0,1-1.53,2l-10.33,1.6a30.31,30.31,0,0,1-2.13,5.07c1.87,2.67,3.87,5.13,6,7.67a2.3,2.3,0,0,1,.47,1.33,1.76,1.76,0,0,1-.47,1.27C76,91,68.53,99.1,66.6,99.1a2.51,2.51,0,0,1-1.4-.47l-7.67-6A28.54,28.54,0,0,1,52.4,94.7,66.47,66.47,0,0,1,50.87,105a2.12,2.12,0,0,1-2,1.6H36.47a2.07,2.07,0,0,1-2-1.67l-1.53-10.2a32.86,32.86,0,0,1-5-2.07l-7.87,5.93a1.92,1.92,0,0,1-1.33.47,2.16,2.16,0,0,1-1.4-.53C15.6,97,7.73,89.83,7.73,87.9a2.27,2.27,0,0,1,.47-1.27c1.93-2.53,3.93-5,5.87-7.6a35.48,35.48,0,0,1-2.33-5.47L1.6,72A1.94,1.94,0,0,1,0,70V57.7a2.08,2.08,0,0,1,1.53-2l10.33-1.6A30.39,30.39,0,0,1,14,49c-1.87-2.67-3.87-5.13-6-7.67A2.48,2.48,0,0,1,7.53,40,2,2,0,0,1,8,38.7c1.33-1.8,8.8-9.87,10.73-9.87a2.51,2.51,0,0,1,1.4.47l7.67,6a34.67,34.67,0,0,1,5.13-2.13A66.84,66.84,0,0,1,34.47,22.9a2.12,2.12,0,0,1,2-1.6h12.4a2.07,2.07,0,0,1,2,1.67l1.53,10.2a32.81,32.81,0,0,1,5,2.07l7.87-5.93a2,2,0,0,1,1.33-.47,2.15,2.15,0,0,1,1.4.53c1.73,1.6,9.6,8.8,9.6,10.67a2.28,2.28,0,0,1-.47,1.27c-1.93,2.6-3.93,5-5.8,7.6a43,43,0,0,1,2.27,5.47L83.73,55.9a2.06,2.06,0,0,1,1.6,2ZM42.67,46.9A17.07,17.07,0,1,0,59.73,64,17.1,17.1,0,0,0,42.67,46.9ZM128,34.5c0,1-8.6,1.93-9.93,2.07a16.18,16.18,0,0,1-2,3.47c.6,1.33,3.4,8,3.4,9.2a.5.5,0,0,1-.27.47c-.8.47-7.93,4.73-8.27,4.73-.87,0-5.87-6.67-6.53-7.67-.67.07-1.33.13-2,.13s-1.33-.07-2-.13c-.67,1-5.67,7.67-6.53,7.67-.33,0-7.47-4.27-8.27-4.73a.58.58,0,0,1-.27-.47c0-1.13,2.8-7.87,3.4-9.2a16.22,16.22,0,0,1-2-3.47c-1.33-.13-9.93-1.07-9.93-2.07V25.17c0-1,8.6-1.93,9.93-2.07a18,18,0,0,1,2-3.47c-.6-1.33-3.4-8.07-3.4-9.2A.58.58,0,0,1,85.6,10c.8-.4,7.93-4.67,8.27-4.67.87,0,5.87,6.6,6.53,7.6.67-.07,1.33-.13,2-.13s1.33.07,2,.13a59.86,59.86,0,0,1,6.13-7.47l.4-.13c.33,0,7.47,4.2,8.27,4.67a.58.58,0,0,1,.27.47c0,1.2-2.8,7.87-3.4,9.2a18,18,0,0,1,2,3.47c1.33.13,9.93,1.07,9.93,2.07Zm0,68.27c0,1-8.6,1.93-9.93,2.07a16.16,16.16,0,0,1-2,3.47c.6,1.33,3.4,8,3.4,9.2a.5.5,0,0,1-.27.47c-.8.47-7.93,4.73-8.27,4.73-.87,0-5.87-6.67-6.53-7.67-.67.07-1.33.13-2,.13s-1.33-.07-2-.13c-.67,1-5.67,7.67-6.53,7.67-.33,0-7.47-4.27-8.27-4.73a.58.58,0,0,1-.27-.47c0-1.13,2.8-7.87,3.4-9.2a16.2,16.2,0,0,1-2-3.47c-1.33-.13-9.93-1.07-9.93-2.07V93.43c0-1,8.6-1.93,9.93-2.07a18,18,0,0,1,2-3.47c-.6-1.33-3.4-8.07-3.4-9.2a.58.58,0,0,1,.27-.47c.8-.4,7.93-4.67,8.27-4.67.87,0,5.87,6.6,6.53,7.6.67-.07,1.33-.13,2-.13s1.33.07,2,.13a59.83,59.83,0,0,1,6.13-7.47l.4-.13c.33,0,7.47,4.2,8.27,4.67a.58.58,0,0,1,.27.47c0,1.2-2.8,7.87-3.4,9.2a17.94,17.94,0,0,1,2,3.47c1.33.13,9.93,1.07,9.93,2.07ZM102.4,21.3a8.53,8.53,0,1,0,8.53,8.53A8.59,8.59,0,0,0,102.4,21.3Zm0,68.27a8.53,8.53,0,1,0,8.53,8.53A8.59,8.59,0,0,0,102.4,89.57Z" fill="#d8d8d8"/></g></svg>