<svg xmlns="http://www.w3.org/2000/svg" viewBox="0 0 128 128"><title>sort_by_name</title><g id="sort_by_name.svg"><path d="M55.41,104.57,32.62,127.36a2.42,2.42,0,0,1-3.29,0L6.48,104.5a2.3,2.3,0,0,1,1.64-3.93H21.84V2.29A2.26,2.26,0,0,1,24.12,0H37.84a2.26,2.26,0,0,1,2.29,2.29v98.29H53.84a2.26,2.26,0,0,1,2.29,2.29A2.64,2.64,0,0,1,55.41,104.57Zm66.79-49.72H101.62V47.29H107L103.62,37H86.26L82.91,47.29h5.36v7.57H67.76V47.29h5L89.19,0h11.57l16.43,47.29h5ZM115.84,128H74.12v-6.43l26.36-37.79a14.12,14.12,0,0,1,1.5-1.93l.79-.64V81c-.29,0-.57.07-1,.07a9,9,0,0,1-2.14.21H83V89.5H74.48V73.14H115V79.5L88.62,117.36a18.92,18.92,0,0,1-1.5,1.86l-.79.79v.14l1-.14a9.73,9.73,0,0,1,2.14-.14h17.71v-8.5h8.64ZM101.26,29.14,96.12,13.57l-.86-3.36a11.87,11.87,0,0,1-.14-1.43h-.29l-.21,1.43a26.41,26.41,0,0,1-.79,3.36L88.62,29.14Z" fill="#d8d8d8"/></g></svg>