<svg xmlns="http://www.w3.org/2000/svg" viewBox="0 0 128 128"><title>switch_advanced</title><g id="switch_advanced.svg"><path d="M62.08,79.25,34.42,106.92l12,12A5.3,5.3,0,0,1,48,122.67,5.37,5.37,0,0,1,42.67,128H5.33A5.37,5.37,0,0,1,0,122.67V85.33A5.37,5.37,0,0,1,5.33,80a5.3,5.3,0,0,1,3.75,1.58l12,12L48.75,65.92a2.62,2.62,0,0,1,3.83,0l9.5,9.5a2.62,2.62,0,0,1,0,3.83ZM128,42.67A5.37,5.37,0,0,1,122.67,48a5.3,5.3,0,0,1-3.75-1.58l-12-12L79.25,62.08a2.62,2.62,0,0,1-3.83,0l-9.5-9.5a2.62,2.62,0,0,1,0-3.83L93.58,21.08l-12-12A5.31,5.31,0,0,1,80,5.33,5.37,5.37,0,0,1,85.33,0h37.33A5.37,5.37,0,0,1,128,5.33Z" fill="#d8d8d8"/></g></svg>