<svg xmlns="http://www.w3.org/2000/svg" viewBox="0 0 128 128"><title>switch_standard</title><g id="switch_standard.svg"><path d="M64,107.4a5.46,5.46,0,0,1-5.43,5.42,5.39,5.39,0,0,1-3.81-1.61L42.55,99,14.41,127.15a2.92,2.92,0,0,1-1.95.85,2.92,2.92,0,0,1-1.95-.85L.85,117.49a2.67,2.67,0,0,1,0-3.9L29,85.45,16.78,73.24a5.39,5.39,0,0,1-1.61-3.82A5.46,5.46,0,0,1,20.6,64h38A5.46,5.46,0,0,1,64,69.42Zm63.15-93L99,42.55l12.21,12.21a5.39,5.39,0,0,1,1.61,3.81A5.46,5.46,0,0,1,107.4,64h-38A5.46,5.46,0,0,1,64,58.58v-38a5.46,5.46,0,0,1,5.42-5.42,5.39,5.39,0,0,1,3.81,1.61L85.45,29,113.59.85a2.67,2.67,0,0,1,3.9,0l9.66,9.66a2.92,2.92,0,0,1,.85,1.95A2.92,2.92,0,0,1,127.15,14.41Z" fill="#d8d8d8"/></g></svg>