<svg xmlns="http://www.w3.org/2000/svg" viewBox="0 0 128 128"><title>sync_disable</title><g id="sync_disable.svg"><path d="M125.83,77.92C118.75,107.42,94.42,128,63.67,128a63.87,63.87,0,0,1-43.83-17.67L9.08,121.08a5.3,5.3,0,0,1-3.75,1.58A5.37,5.37,0,0,1,0,117.33V80a5.37,5.37,0,0,1,5.33-5.33H42.67A5.37,5.37,0,0,1,48,80a5.3,5.3,0,0,1-1.58,3.75L35,95.17a42.5,42.5,0,0,0,65.33-8.83c2-3.25,3-6.42,4.42-9.75a2.58,2.58,0,0,1,2.5-1.92h16a2.69,2.69,0,0,1,2.67,2.67A1.42,1.42,0,0,1,125.83,77.92ZM128,48a5.37,5.37,0,0,1-5.33,5.33H85.33A5.37,5.37,0,0,1,80,48a5.3,5.3,0,0,1,1.58-3.75l11.5-11.5a42.68,42.68,0,0,0-65.42,8.92c-2,3.25-3,6.42-4.42,9.75a2.58,2.58,0,0,1-2.5,1.92H4.17A2.69,2.69,0,0,1,1.5,50.67v-.58C8.67,20.5,33.25,0,64,0a64.7,64.7,0,0,1,44.08,17.67L118.92,6.92a5.3,5.3,0,0,1,3.75-1.58A5.37,5.37,0,0,1,128,10.67Z" fill="#c9070a"/></g></svg>