<svg xmlns="http://www.w3.org/2000/svg" viewBox="0 0 128 128"><title>temp_server_password</title><g id="temp_server_password.svg"><path d="M55.62,38.88a8,8,0,0,0-8,8,8.2,8.2,0,0,0,.79,3.45A8.22,8.22,0,0,0,45,49.53a8,8,0,1,0,8,8,8.22,8.22,0,0,0-.79-3.45,8.2,8.2,0,0,0,3.45.79,8,8,0,0,0,0-16M44.3,73.48c-9.07,0-15.3-6.28-15.3-15.3,0-13.64,13.64-27.29,27.29-27.29,9,0,15.3,6.24,15.3,15.3a25.91,25.91,0,0,1-5.45,15.18L80.91,76.15l4-4c-.87-.87-4.78-4.24-4.78-5.32S83.94,62,84.9,62a1.43,1.43,0,0,1,1,.42C87.39,64,99,74.94,99,76.15h0c0,1-3.83,4.78-4.78,4.78S89.77,77,88.89,76.15l-4,4L94,89.29a4,4,0,0,1,1.16,2.83,5.66,5.66,0,0,1-5,5,4,4,0,0,1-2.83-1.16L59.49,68A25.91,25.91,0,0,1,44.3,73.48M64,0A106.28,106.28,0,0,0,13.87,12.56V75.79C21.07,102.34,47.29,128,64,128s41.57-20.39,50.13-52.21V12.56A106.28,106.28,0,0,0,64,0" fill="#d8d8d8"/></g></svg>