<svg xmlns="http://www.w3.org/2000/svg" viewBox="0 0 128 128"><title>textformat_underline</title><g id="textformat_underline.svg"><path d="M64,84.24a26.35,26.35,0,0,0,10.47-2,22.05,22.05,0,0,0,7.8-5.53,24.28,24.28,0,0,0,4.87-8.5,33.6,33.6,0,0,0,1.68-10.87V0h12.71V57.36A43.09,43.09,0,0,1,99,72.51,35.21,35.21,0,0,1,91.53,84.6a34,34,0,0,1-11.82,8A40.52,40.52,0,0,1,64,95.5a40.52,40.52,0,0,1-15.68-2.9,34.32,34.32,0,0,1-11.85-8A34.81,34.81,0,0,1,29,72.51a43,43,0,0,1-2.6-15.15V0H39.14V57.3a33.68,33.68,0,0,0,1.68,10.86,24.17,24.17,0,0,0,4.88,8.5,22.24,22.24,0,0,0,7.84,5.56A26.21,26.21,0,0,0,64,84.24Z" fill="#d8d8d8"/><rect x="15.56" y="122.14" width="96.88" height="5.86" fill="#d8d8d8"/></g></svg>