<svg xmlns="http://www.w3.org/2000/svg" viewBox="0 0 128 128"><title>textformat</title><g id="textformat.svg"><path d="M128,0V128H0V0ZM58.08,46.83l14.5-1.75C72.58,32.33,63.83,30,54.08,30,39.58,30,32,35.83,32,50v6H24V66.67h6.33c.83,0,1.67,0,1.67.67V99.17c0,1.58-.42,2.08-1.92,2.25L24,102v7.33H61.33v-7.17L48.92,101c-1.5-.17-.92-.42-.92-2.08V66.67H63.92L67.08,56H47.83c-.83,0,.17-.58.17-1.25V48.08c0-5,.17-7.83,5.42-7.83C56.83,40.25,58.17,41.5,58.08,46.83ZM104,102.17l-4.5-.75c-1.58-.25-.83-.42-.83-2.08V56H75.75l-1.92,8.42,6.92,1.83a2.39,2.39,0,0,1,1.92,2.25V99.33c0,1.58-.67,1.92-2.17,2.08l-5.83.75v7.17H104ZM74.67,29.42l6.25,6.92-2.58,9.5,2.08,2.08,8.92-4.75,8.92,4.75,2.08-2.08-2.58-9.5L104,29.42l-1-2.75H95.08l-4.42-8H88l-4.42,8H75.67Z" fill="#d8d8d8"/></g></svg>