<svg xmlns="http://www.w3.org/2000/svg" viewBox="0 0 128 128"><title>textformat_bold</title><g id="textformat_bold.svg"><path d="M61.54,0A89.54,89.54,0,0,1,84.12,2.46,43,43,0,0,1,99.32,9.4a26.33,26.33,0,0,1,8.57,10.89,36.84,36.84,0,0,1,2.68,14.32,28.11,28.11,0,0,1-1.23,8.3,23.9,23.9,0,0,1-3.87,7.47,30.11,30.11,0,0,1-6.76,6.37,42.55,42.55,0,0,1-9.93,5q12.65,3.08,18.71,9.93t6.06,17.75a36.6,36.6,0,0,1-3.16,15.2,34.77,34.77,0,0,1-9.27,12.26,43.94,43.94,0,0,1-15.07,8.17A65.48,65.48,0,0,1,65.58,128H14.45V0ZM44.15,22.23V53.85H59.61a50.85,50.85,0,0,0,8.87-.7,18.44,18.44,0,0,0,6.72-2.46,11.29,11.29,0,0,0,4.22-4.83,18.11,18.11,0,0,0,1.45-7.73,21.79,21.79,0,0,0-1.14-7.6,10.9,10.9,0,0,0-3.51-4.88,14.77,14.77,0,0,0-6-2.64,41.37,41.37,0,0,0-8.65-.79ZM65.05,105.6a26.2,26.2,0,0,0,9.62-1.49,15.19,15.19,0,0,0,5.84-3.87,13,13,0,0,0,2.9-5.36,23.53,23.53,0,0,0,.79-6.06,20.24,20.24,0,0,0-.92-6.33,10.47,10.47,0,0,0-3.16-4.74,15.45,15.45,0,0,0-5.93-3,34.56,34.56,0,0,0-9.31-1.05H44.15V105.6Z" fill="#d8d8d8"/></g></svg>