<svg xmlns="http://www.w3.org/2000/svg" viewBox="0 0 128 128"><title>token_use</title><g id="token_use.svg"><path d="M119.25,95c-2,0-8.14-7.15-9.73-8.75l-7.3,7.3,16.73,16.73a7.37,7.37,0,0,1,2.13,5.17c0,4.26-4.87,9.13-9.13,9.13a7.38,7.38,0,0,1-5.17-2.13l-51-51c-8,5.93-17.72,10-27.76,10-16.58,0-28-11.48-28-28C0,28.41,24.95,3.46,49.89,3.46c16.5,0,28,11.41,28,28,0,10-4,19.77-10,27.76l27,27,7.3-7.3c-1.6-1.6-8.75-7.76-8.75-9.73,0-1.75,7-8.75,8.75-8.75a2.62,2.62,0,0,1,1.75.76c2.81,2.81,24,22.82,24,25C128,88,121,95,119.25,95ZM48.67,18.06a14.61,14.61,0,0,0-14.6,14.6A15,15,0,0,0,35.52,39a15,15,0,0,0-6.31-1.44,14.6,14.6,0,1,0,14.6,14.6,15,15,0,0,0-1.45-6.31,15,15,0,0,0,6.31,1.44,14.6,14.6,0,0,0,0-29.21Z" fill="#00b4df"/></g></svg>