<svg xmlns="http://www.w3.org/2000/svg" viewBox="0 0 128 128"><title>transfer</title><g id="transfer.svg"><path d="M85.21,127.36,62.36,104.5a2.38,2.38,0,0,1-.64-1.64A2.35,2.35,0,0,1,64,100.57H77.71V2.29A2.35,2.35,0,0,1,80,0H93.71A2.35,2.35,0,0,1,96,2.29v98.29h13.71a2.26,2.26,0,0,1,2.29,2.29,2.64,2.64,0,0,1-.71,1.71L88.5,127.36a2.42,2.42,0,0,1-3.29,0ZM34.29,128A2.35,2.35,0,0,1,32,125.71V27.43H18.29A2.3,2.3,0,0,1,16,25.14a2.63,2.63,0,0,1,.71-1.71L39.57.64A2.21,2.21,0,0,1,41.14,0a2.26,2.26,0,0,1,1.64.64L65.64,23.5a2.38,2.38,0,0,1,.64,1.64A2.3,2.3,0,0,1,64,27.43H50.29v98.29A2.3,2.3,0,0,1,48,128Z" fill="#00b4df"/></g></svg>