<svg xmlns="http://www.w3.org/2000/svg" viewBox="0 0 128 128"><title>urlcatcher</title><g id="urlcatcher.svg"><path d="M121.33,110,109.8,121.49a22.63,22.63,0,0,1-31.92-.16L61.73,105.1a22.42,22.42,0,0,1-6.51-15.92,23,23,0,0,1,6.9-16.39l-6.9-6.9a22.73,22.73,0,0,1-32.31.31L6.59,49.88A22.53,22.53,0,0,1,6.67,18L18.2,6.51a22.63,22.63,0,0,1,31.92.16L66.27,22.9a22.42,22.42,0,0,1,6.51,15.92,23,23,0,0,1-6.9,16.39l6.9,6.9a22.73,22.73,0,0,1,32.31-.31l16.31,16.31a22.53,22.53,0,0,1-.08,31.92ZM55.61,33.49,39.45,17.25a7.61,7.61,0,0,0-5.33-2.2,7.88,7.88,0,0,0-5.33,2.12L17.26,28.63a7.48,7.48,0,0,0,0,10.59L33.57,55.53a7.53,7.53,0,0,0,5.33,2.12,7.37,7.37,0,0,0,5.65-2.43C42,52.63,38.9,50.43,38.9,46.43a7.53,7.53,0,0,1,7.53-7.53c4,0,6.2,3.06,8.78,5.65a7.6,7.6,0,0,0,.39-11.06Zm55.14,55.29L94.43,72.47a7.61,7.61,0,0,0-5.33-2.2,7.44,7.44,0,0,0-5.65,2.51c2.59,2.59,5.65,4.78,5.65,8.78a7.53,7.53,0,0,1-7.53,7.53c-4,0-6.2-3.06-8.78-5.65a7.6,7.6,0,0,0-.39,11.06l16.16,16.24a7.53,7.53,0,0,0,5.33,2.12,7.81,7.81,0,0,0,5.33-2l11.53-11.45a7.48,7.48,0,0,0,0-10.59Z" fill="#ffb000"/></g></svg>