<svg xmlns="http://www.w3.org/2000/svg" viewBox="0 0 128 128"><title>view_icon</title><g id="view_icons.svg"><path d="M59.08,49.23a9.92,9.92,0,0,1-9.85,9.85H9.85A9.92,9.92,0,0,1,0,49.23V19.69A9.91,9.91,0,0,1,9.85,9.85H49.23a9.91,9.91,0,0,1,9.85,9.85Zm0,59.08a9.91,9.91,0,0,1-9.85,9.85H9.85A9.91,9.91,0,0,1,0,108.31V78.77a9.92,9.92,0,0,1,9.85-9.85H49.23a9.92,9.92,0,0,1,9.85,9.85ZM128,49.23a9.92,9.92,0,0,1-9.85,9.85H78.77a9.92,9.92,0,0,1-9.85-9.85V19.69a9.91,9.91,0,0,1,9.85-9.85h39.38A9.91,9.91,0,0,1,128,19.69Zm0,59.08a9.91,9.91,0,0,1-9.85,9.85H78.77a9.91,9.91,0,0,1-9.85-9.85V78.77a9.92,9.92,0,0,1,9.85-9.85h39.38A9.92,9.92,0,0,1,128,78.77Z" fill="#d8d8d8"/></g></svg>