<svg xmlns="http://www.w3.org/2000/svg" viewBox="0 0 128 128"><title>volume</title><g id="volume.svg"><path d="M59.08,105.85a5,5,0,0,1-4.92,4.92,4.9,4.9,0,0,1-3.46-1.46L25.08,83.69H4.92A5,5,0,0,1,0,78.77V49.23a5,5,0,0,1,4.92-4.92H25.08L50.69,18.69a4.9,4.9,0,0,1,3.46-1.46,5,5,0,0,1,4.92,4.92ZM76.69,82.08a4.3,4.3,0,0,1-1.92.38,4.91,4.91,0,0,1-4.92-4.92c0-5.85,8.92-4.23,8.92-13.54s-8.92-7.69-8.92-13.54a4.91,4.91,0,0,1,4.92-4.92,4.3,4.3,0,0,1,1.92.38C83.92,48.77,88.62,56.31,88.62,64A19.67,19.67,0,0,1,76.69,82.08Zm7.77,18.15a5.72,5.72,0,0,1-1.92.38,4.93,4.93,0,0,1-2-9.46,39.89,39.89,0,0,0,5.85-3.38,29.43,29.43,0,0,0,0-47.54,39.89,39.89,0,0,0-5.85-3.38,4.93,4.93,0,0,1,1.92-9.46,5.79,5.79,0,0,1,2,.38,39.45,39.45,0,0,1,0,72.46Zm7.77,18.08a5.77,5.77,0,0,1-2,.38,5,5,0,0,1-4.92-4.92c0-2.23,1.15-3.46,3-4.54,1.08-.62,2.31-1,3.46-1.62a53.82,53.82,0,0,0,6.31-3.92,49.28,49.28,0,0,0,0-79.38,53.82,53.82,0,0,0-6.31-3.92c-1.15-.62-2.38-1-3.46-1.62-1.85-1.08-3-2.31-3-4.54a5,5,0,0,1,4.92-4.92,5.77,5.77,0,0,1,2,.38,59.11,59.11,0,0,1,0,108.62Z" fill="#d8d8d8"/></g></svg>