<svg xmlns="http://www.w3.org/2000/svg" viewBox="0 0 128 128"><title>warning_external_link</title><g id="warning_external_link.svg"><path d="M78.88,82.92a3.51,3.51,0,0,0-2.67,1.19c1.22,1.22,2.67,2.26,2.67,4.15a3.56,3.56,0,0,1-3.56,3.56c-1.89,0-2.93-1.45-4.15-2.67A3.59,3.59,0,0,0,71,94.37L78.62,102a3.56,3.56,0,0,0,2.52,1,3.69,3.69,0,0,0,2.52-1l5.45-5.41a3.54,3.54,0,0,0,0-5L81.4,84a3.59,3.59,0,0,0-2.52-1m-26-26.09a3.72,3.72,0,0,0-2.52,1l-5.45,5.41a3.54,3.54,0,0,0,0,5L52.65,76a3.56,3.56,0,0,0,2.52,1,3.48,3.48,0,0,0,2.67-1.15c-1.22-1.22-2.67-2.26-2.67-4.15a3.56,3.56,0,0,1,3.56-3.56c1.89,0,2.93,1.45,4.15,2.67a3.59,3.59,0,0,0,.19-5.22l-7.63-7.67a3.59,3.59,0,0,0-2.52-1m-.06-7.11H53a10.53,10.53,0,0,1,7.5,3.15l7.63,7.67a10.59,10.59,0,0,1,3.08,7.52,10.85,10.85,0,0,1-3.26,7.74l3.26,3.26a10.74,10.74,0,0,1,15.27-.15l7.71,7.71a10.65,10.65,0,0,1,0,15.08l-5.45,5.41a10.59,10.59,0,0,1-7.46,3.08h-.12a10.53,10.53,0,0,1-7.5-3.15l-7.63-7.67a10.59,10.59,0,0,1-3.08-7.52,10.85,10.85,0,0,1,3.26-7.74l-3.26-3.26A10.74,10.74,0,0,1,47.61,81L39.9,73.29a10.56,10.56,0,0,1-3.11-7.5v-.12a10.6,10.6,0,0,1,3.15-7.46l5.45-5.41a10.59,10.59,0,0,1,7.46-3.08M64,4.56a9.09,9.09,0,0,0-8,4.79L1.14,109.93a9,9,0,0,0,.14,9,9.15,9.15,0,0,0,7.86,4.5H118.86a9.15,9.15,0,0,0,7.86-4.5,9,9,0,0,0,.14-9L72,9.35a9.09,9.09,0,0,0-8-4.79" fill="#c9070a"/></g></svg>