<svg xmlns="http://www.w3.org/2000/svg" viewBox="0 0 128 128"><title>warning_error</title><g id="warning_error.svg"><path d="M126.86,109.93a9,9,0,0,1-.14,9,9.14,9.14,0,0,1-7.86,4.5H9.14a9.15,9.15,0,0,1-7.86-4.5,9,9,0,0,1-.14-9L56,9.35a9.08,9.08,0,0,1,16,0ZM74.29,43.28a1.73,1.73,0,0,0-.71-1.36,2.94,2.94,0,0,0-1.71-.79H56.14a2.94,2.94,0,0,0-1.71.79,2,2,0,0,0-.71,1.5l1.21,32.65c0,.93,1.07,1.64,2.43,1.64H70.57c1.29,0,2.36-.71,2.43-1.64ZM73.14,89.22a2.32,2.32,0,0,0-2.29-2.36H57.14a2.32,2.32,0,0,0-2.29,2.36v13.57a2.32,2.32,0,0,0,2.29,2.36H70.86a2.32,2.32,0,0,0,2.29-2.36Z" fill="#c9070a"/></g></svg>