<svg xmlns="http://www.w3.org/2000/svg" viewBox="0 0 128 128"><title>whisper_toggle</title><g id="whisper.svg"><rect x="37.24" y="75.58" width="10.6" height="30.17" transform="translate(-51.65 56.64) rotate(-45)" fill="#d8d8d8"/></g><g id="whisper_toggle.svg"><path d="M10.54,117.33a5.33,5.33,0,1,0,5.33,5.33A5.37,5.37,0,0,0,10.54,117.33Z" fill="#d8d8d8"/><path d="M26.54,101.33a5.33,5.33,0,1,0,5.33,5.33A5.37,5.37,0,0,0,26.54,101.33Z" fill="#d8d8d8"/><path d="M74.79,0a48,48,0,0,0-48,48,5.33,5.33,0,0,0,10.67,0,37.33,37.33,0,1,1,74.67,0c0,9.83-4.42,14.92-9.58,20.83-5.58,6.42-12,13.75-12,27.17a21.37,21.37,0,0,1-21.33,21.33,5.33,5.33,0,1,0,0,10.67,32,32,0,0,0,32-32c0-9.42,4.17-14.17,9.42-20.17,5.67-6.58,12.17-14,12.17-27.83A48,48,0,0,0,74.79,0Z" fill="#d8d8d8"/><path d="M93.21,48a5.33,5.33,0,0,0,10.67,0,29.33,29.33,0,1,0-58.67,0,5.33,5.33,0,0,0,10.67,0,18.67,18.67,0,1,1,37.33,0Z" fill="#d8d8d8"/></g></svg>